<?xml version="1.0" encoding="utf-8"?>
<!DOCTYPE svg PUBLIC "-//W3C//DTD SVG 20010904//EN" "http://www.w3.org/TR/2001/REC-SVG-20010904/DTD/svg10.dtd">
<svg version="1.0" xmlns="http://www.w3.org/2000/svg" width="396px" height="426px" viewBox="0 0 396 426" preserveAspectRatio="xMidYMid meet">
 <g fill="#2a292d">
  <path d="M171 390.9 c-33.7 -7.3 -49.9 -24.2 -55.6 -58 -2 -12.3 -1.5 -41.4 1.1 -57.9 2.4 -15.8 7.9 -42.8 13 -63.6 2.5 -10.3 4.5 -19.2 4.5 -20 0 -0.9 -0.8 -1 -3 -0.4 -5.8 1.7 -26.5 3.2 -34.5 2.5 -32.8 -2.7 -55.6 -14.8 -64.7 -34.1 -11.9 -25.5 6.5 -56.6 38 -64 8.4 -2 32.6 -1.4 41.7 1.1 26.4 7.1 45.5 16.5 83 40.9 22.1 14.3 38 23.8 48.1 28.6 40.4 19.2 74.4 16.8 86.9 -6.2 3.4 -6.3 4.5 -17.6 2.5 -26.7 -3.8 -17.6 -19.1 -39.7 -38.7 -56.1 -67.4 -56.2 -151.6 -57.1 -215.8 -2.4 l-8 6.8 5.4 -6.3 c6.9 -7.9 19.7 -18.9 30.9 -26.4 54.3 -36.1 123.9 -34.6 183.2 4.1 26.3 17.1 45.4 37.7 56 60.4 11.9 25.6 10 49.6 -5.3 66.4 -22.2 24.3 -63 25.8 -106.5 4 -13.7 -6.9 -24.1 -13.2 -46.8 -28.3 -22.4 -15 -34.5 -22.6 -35 -22 -0.3 0.2 -0.9 6.7 -1.4 14.3 -1.3 18.1 -2.9 30.4 -9.5 73.4 -7.6 49.8 -8.9 61.4 -8.9 83.5 -0.1 22 1.5 31.7 6.9 43.2 4.3 9.2 9.9 15.2 18.3 19.6 10.4 5.5 17.8 7.1 32.2 7.1 19.3 0 32.7 -4.6 44 -15.1 10.2 -9.4 15.1 -23.1 16.9 -47.8 1.2 -15.7 -0.9 -61.5 -3.4 -74.5 -0.4 -1.8 -0.3 -2.1 0.4 -1 1.4 2.3 7.8 29.2 10.1 42.5 4.9 28.7 4.8 50.7 -0.5 68.7 -1.3 4.6 -2.3 8.3 -2.2 8.4 0.1 0 5.3 0.8 11.5 1.8 13.9 2.1 25.6 5.5 31.6 9 5.8 3.4 6.4 7.2 1.5 10.7 -11.6 8.2 -51.3 14.8 -93.4 15.5 -22.4 0.3 -26 0.2 -34.5 -1.7z"/>
  <path d="M146.7 314 c-1.4 -18.3 0.7 -40 8.7 -91.6 2.5 -16 5.4 -35.7 6.4 -43.7 1.1 -8.1 2.3 -15.1 2.7 -15.5 0.9 -0.9 -0.3 23.6 -2.1 42.3 -0.8 8.3 -3.7 29.6 -6.4 47.5 -4.4 28.9 -7.4 53.5 -8.2 67 -0.2 2.7 -0.6 0.3 -1.1 -6z"/>
 </g>
</svg>