<?xml version="1.0" encoding="utf-8"?>
<!DOCTYPE svg PUBLIC "-//W3C//DTD SVG 20010904//EN" "http://www.w3.org/TR/2001/REC-SVG-20010904/DTD/svg10.dtd">
<svg version="1.0" xmlns="http://www.w3.org/2000/svg" width="570px" height="616px" viewBox="0 0 570 616" preserveAspectRatio="xMidYMid meet">
 <g fill="#2a292d">
  <path d="M169 588.3 c-2.4 -0.9 -6.1 -4.6 -7.6 -7.5 -4.8 -9.3 2.9 -20.8 13.9 -20.8 14.2 0 20.8 15.8 10.7 25.5 -2.6 2.5 -4 2.9 -9.3 3.2 -3.4 0.1 -6.9 0 -7.7 -0.4z m11.1 -4.9 c4.4 -2.2 6.2 -7.2 4.6 -12.1 -1.4 -4.3 -4.5 -6.3 -9.7 -6.3 -4.6 0 -7.6 2.1 -9 6.5 -3 9 5.7 16.3 14.1 11.9z"/>
  <path d="M204 574.5 l0 -14.5 7 0 c11.4 0 17 3.6 17 10.8 0 2.4 -0.9 4.2 -3 6.3 l-3 3 2.4 3.2 c3.9 5.4 4 5.7 0.9 5.7 -2.2 0 -3.4 -0.9 -5.3 -4 -2.3 -3.7 -2.8 -4 -6.7 -4 l-4.3 0 0 4 c0 3.6 -0.2 4 -2.5 4 l-2.5 0 0 -14.5z m17 0 c1.8 -2.2 1.5 -6.6 -0.6 -8.2 -1 -0.7 -3.9 -1.3 -6.6 -1.3 l-4.8 0 0 5.5 0 5.5 5.4 0 c3.5 0 5.8 -0.5 6.6 -1.5z"/>
  <path d="M245.8 587.4 c-6.5 -3.5 -8.6 -14.7 -4 -21.2 4.5 -6.2 15.2 -8 21.7 -3.8 2.6 1.7 2.6 1.8 0.9 3.7 -1.5 1.7 -1.9 1.8 -3.4 0.4 -1 -0.9 -3.6 -1.5 -6.2 -1.5 -6.4 0 -9.8 3.4 -9.8 10 0 4.2 0.4 5.2 3.1 7.4 3.2 2.8 6.2 3.2 10.3 1.6 2.3 -0.8 2.6 -1.5 2.6 -5.5 0 -4.1 0.2 -4.5 2.5 -4.5 2.4 0 2.5 0.2 2.5 7.4 l0 7.3 -8.7 0.1 c-6 0.1 -9.7 -0.4 -11.5 -1.4z"/>
  <path d="M280 579.1 c0 -5.5 0.4 -11.1 1 -12.5 2.1 -5.7 11.7 -8.4 18 -5.1 4.8 2.5 6 6.1 6 17.5 l0 10 -2.5 0 c-2.2 0 -2.5 -0.4 -2.5 -3.5 l0 -3.5 -7.5 0 -7.5 0 0 3.5 c0 3.1 -0.3 3.5 -2.5 3.5 -2.5 0 -2.5 0 -2.5 -9.9z m20 -5.9 c0 -5.6 -2.3 -8.2 -7.1 -8.2 -5.2 0 -7.9 2.7 -7.9 8 l0 4 7.5 0 7.5 0 0 -3.8z"/>
  <path d="M320 574.5 l0 -14.5 2.5 0 c1.6 0 2.5 0.6 2.5 1.5 0 1.4 0.3 1.4 3 0 5.8 -3 13.5 -1.1 15.8 4 0.7 1.5 1.2 7.1 1.2 13 l0 10.5 -2.5 0 c-2.5 0 -2.5 0 -2.5 -9.8 0 -11.9 -1.1 -14.2 -7 -14.2 -3 0 -4.3 0.6 -5.9 2.6 -1.8 2.3 -2.1 4.1 -2.1 12 0 9.4 0 9.4 -2.5 9.4 l-2.5 0 0 -14.5z"/>
  <path d="M357 587.1 c0 -1.4 0.8 -2.1 2.8 -2.3 l2.7 -0.3 0.3 -9.7 0.3 -9.7 -2.8 -0.3 c-2 -0.2 -2.8 -0.9 -2.8 -2.3 0 -1.8 0.8 -2 7.8 -2.3 7.7 -0.3 7.7 -0.3 7.7 2.3 0 2 -0.5 2.5 -2.5 2.5 l-2.5 0 0 10 0 10 2.5 0 c1.8 0 2.5 0.5 2.5 2 0 1.8 -0.7 2 -8 2 -7.2 0 -8 -0.2 -8 -1.9z"/>
  <path d="M389.9 586.7 c-1.9 -1.2 -4.2 -3.8 -5.2 -5.7 -3.8 -7.3 0.3 -17.5 7.9 -20 4.5 -1.5 11.5 -0.8 15 1.5 2.4 1.6 2.5 1.7 0.9 3.5 -1.6 1.7 -2 1.8 -3.8 0.5 -1.2 -0.8 -4 -1.5 -6.3 -1.5 -5.6 0 -9.4 3.7 -9.4 9.2 0 5 1.3 7.4 5 9.3 3.7 1.9 5.4 1.9 9.7 -0.1 3.1 -1.5 3.6 -1.6 5 -0.1 1.4 1.4 1.3 1.7 -1.8 3.6 -4.8 2.9 -12.5 2.8 -17 -0.2z"/>
  <path d="M116 539.1 c-6.5 -2 -9.2 -4.3 -11.8 -9.9 l-2.7 -5.7 -0.3 -33.7 -0.3 -33.8 5.5 0 5.5 0 0.3 33.3 c0.3 36.5 0.4 37.1 6.4 40.3 4.3 2.3 9.8 1.1 12.8 -2.9 2 -2.7 2.1 -4.1 2.4 -36.8 l0.3 -33.9 5.5 0 5.5 0 -0.3 34.8 c-0.3 33.3 -0.4 34.9 -2.4 38.7 -2.8 5.1 -5.3 7.3 -10.1 9.1 -4.1 1.4 -12.3 1.7 -16.3 0.5z"/>
  <path d="M171.1 539 c-6.5 -1.5 -12.1 -7.6 -14.2 -15.2 -1.7 -6.3 -1 -7.9 4.1 -9.4 2.5 -0.8 4.6 -1.4 4.6 -1.4 0.1 0 0.4 1.9 0.8 4.2 1 6.1 3.5 10.7 6.7 12.3 9.1 4.7 16.5 -3.5 12.5 -13.9 -1.6 -4.2 -3.5 -6.2 -20 -21.5 -7 -6.5 -9.5 -11.6 -9.6 -19.4 0 -10.1 4.9 -16.5 14.1 -18.6 13.5 -3 23.4 3.4 25.5 16.7 0.6 4 0.6 4.1 -3.2 5.1 -5.8 1.6 -6.1 1.5 -6.7 -2.9 -1.1 -8.2 -6.1 -12.1 -12.9 -10 -6.5 1.9 -8.7 8.2 -5 14.6 0.9 1.8 6.6 7.6 12.7 13.1 13.3 12 16.5 17.2 16.5 26.8 0 3.5 -0.5 7.6 -1.1 9.2 -3.3 8.7 -13.5 13 -24.8 10.3z"/>
  <path d="M330.8 539.1 c-5.3 -1.8 -8.7 -4.6 -11.5 -9.5 l-2.8 -5.1 -0.3 -23.7 c-0.4 -29 0.2 -33.1 6.1 -39.3 3.4 -3.4 5.3 -4.5 9.7 -5.4 8.8 -1.8 18 0.1 22.2 4.7 6.2 6.6 6.3 7.2 6.3 36.7 l0 27 -2.8 5.1 c-3.8 6.8 -8.7 9.6 -17.6 10 -3.6 0.2 -7.8 0 -9.3 -0.5z m15.4 -10.8 c2.9 -3 4.1 -14.2 3.6 -36.3 -0.5 -22.1 -1.1 -24.6 -6.9 -26.8 -2.8 -1.1 -4.5 -1.1 -7.7 -0.2 -7.1 1.9 -7.4 3.2 -7.3 32.6 0.1 14 0.6 26.5 1.1 27.8 2.1 5.5 12.8 7.3 17.2 2.9z"/>
  <path d="M386.1 538.8 c-5.2 -1.4 -7.9 -3.7 -10.9 -8.7 -2.6 -4.5 -2.7 -5 -3.2 -25.6 -0.3 -11.5 -0.2 -24.3 0.2 -28.2 1.3 -14.2 7.8 -20.6 21.2 -20.7 9 0 13.7 1.6 17.5 5.9 5 5.8 5.6 9.5 5.6 36.5 0 27 -0.7 30.9 -6.3 36.3 -5.2 5 -15.6 7 -24.1 4.5z m13.8 -9.3 c4.6 -2.3 5.1 -5.6 5.1 -32.2 0 -28.6 -0.4 -30.5 -6.9 -32.3 -5.3 -1.4 -9.9 -0.2 -12.5 3.4 -2 2.6 -2.1 4 -2.1 29 0 23.6 0.2 26.5 1.8 28.9 3 4.6 9.3 6 14.6 3.2z"/>
  <path d="M507.8 539 c-7.3 -2.2 -13.8 -11 -14.1 -19.2 -0.2 -3.9 -0.1 -4.1 4.2 -5.4 5.3 -1.5 6.1 -1.2 6.1 2.6 0 9.3 8.4 16.5 15.1 12.9 3.7 -1.9 4.8 -4 4.9 -9 0 -6.2 -3 -10.5 -15.8 -21.9 -13.7 -12.3 -16.9 -18.9 -14.2 -29.9 1.3 -5.4 6.7 -11.5 11.2 -12.6 7.7 -1.8 15.9 -0.9 20.4 2.3 3.1 2.2 6.2 8 7.3 13.6 l0.8 4.4 -4.5 1.2 c-4.8 1.2 -6.2 0.5 -6.2 -3.1 0 -6.8 -5.5 -11.6 -11.7 -10.4 -5.3 1 -7.3 3.6 -7.3 9.7 0 5.7 -0.4 5.1 18.2 22.3 4.1 3.9 8.5 9 9.8 11.4 2.7 5.4 3.6 13.2 2.1 18.7 -1.3 4.8 -6.5 10.3 -11.3 12 -3.8 1.4 -11.1 1.6 -15 0.4z"/>
  <path d="M35.6 498.8 c0.3 -22.2 0.7 -40.9 1 -41.5 0.2 -0.8 2.3 -1.3 5.7 -1.3 l5.4 0 6.7 30.8 c3.7 16.9 7 31.8 7.5 33.1 0.5 1.8 2.6 -5.9 7.5 -28.5 3.7 -17 7 -31.9 7.3 -33.2 0.5 -2.1 1 -2.3 6.2 -2 l5.6 0.3 0.1 5 c0.1 2.8 0.5 21.3 0.8 41.3 l0.7 36.2 -4.5 0 -4.6 0 -0.1 -3.7 c-0.1 -2.1 -0.3 -5.1 -0.4 -6.8 -0.2 -1.6 -0.3 -13.1 -0.4 -25.4 -0.1 -12.3 -0.3 -22.2 -0.5 -22 -0.4 0.4 -13.6 56.2 -13.6 57.4 0 0.3 -1.6 0.5 -3.5 0.5 -1.9 0 -3.5 -0.2 -3.5 -0.5 0 -1.4 -13.1 -56.9 -13.5 -57.3 -0.3 -0.3 -0.5 10.5 -0.6 23.9 -0.1 13.4 -0.2 25.3 -0.3 26.4 -0.1 1.1 -0.3 3.2 -0.4 4.8 -0.2 2.5 -0.5 2.7 -4.7 2.7 l-4.5 0 0.6 -40.2z"/>
  <path d="M207.6 536.8 c-0.3 -1.3 -0.5 -19.8 -0.3 -41.3 l0.2 -39 5.8 -0.3 5.7 -0.3 0 18.1 0 18 10.5 0 10.5 0 0.2 -17.7 0.3 -17.8 5.8 -0.3 5.7 -0.3 0 41.6 0 41.5 -6 0 -6 0 0 -19.5 0 -19.5 -10.5 0 -10.5 0 0 19.5 0 19.5 -5.4 0 c-4.7 0 -5.4 -0.3 -6 -2.2z"/>
  <path d="M264 497.5 l0 -41.5 9.9 0 c23.4 0 30.1 4.5 30.9 21.1 0.6 10.9 -1.8 15.9 -9.6 20.5 -0.2 0.1 9.9 36 11.3 40.2 0.3 0.9 -1.1 1.2 -5.3 1.2 l-5.7 0 -5.5 -19.5 -5.4 -19.5 -4.3 0 -4.3 0 0 19.5 0 19.5 -6 0 -6 0 0 -41.5z m24 -7.3 c4.4 -2.2 6 -5.3 6 -11.9 0 -9.9 -2.8 -13 -12.3 -13.6 l-5.7 -0.3 0 13.8 0 13.8 4.3 0 c2.3 0 5.8 -0.8 7.7 -1.8z"/>
  <path d="M428 526.2 c0 -7.1 0.3 -25.8 0.7 -41.5 l0.6 -28.7 5.7 0 c5.7 0 5.7 0 6.3 3.3 0.3 1.7 1.5 7.3 2.6 12.2 1.1 5 3.8 17.8 6.1 28.5 2.3 10.7 4.4 20.2 4.7 21 0.3 0.9 1 -0.4 1.5 -3 0.5 -2.5 2.5 -11.2 4.3 -19.5 1.9 -8.2 4.3 -19.5 5.5 -25 1.2 -5.5 2.6 -11.7 3.1 -13.7 l1 -3.8 5.4 0 5.4 0 0.3 9.8 c0.2 5.3 0.5 19.6 0.6 31.7 0.1 12.1 0.5 26.4 0.8 31.8 l0.7 9.7 -5.2 0 -5.1 0 0 -28.7 c0 -15.8 -0.4 -28.3 -0.8 -27.7 -0.7 0.7 -10.9 42.8 -12.8 53.2 -0.6 2.8 -1 3.2 -4 3.2 -3.9 0 -2.8 3.2 -10.9 -32.2 -3.3 -14.1 -6 -25.6 -6.1 -25.5 -0.2 0.3 -1.4 45.7 -1.4 52.5 l0 5.2 -4.5 0 -4.5 0 0 -12.8z"/>
  <path d="M267.5 403 c-24 -5.2 -39.1 -15.2 -47.7 -31.5 -7.9 -15.2 -10.4 -29.8 -9.5 -56.3 0.8 -24.8 5 -49.7 15.7 -94.1 2.2 -9 4 -16.9 4 -17.5 0 -1 -1.4 -0.9 -6.2 0.1 -8 1.8 -36.1 2.1 -44.8 0.4 -20.9 -3.9 -38.3 -13.4 -47.5 -25.9 -9.9 -13.3 -9.7 -32.3 0.3 -47.8 7.1 -10.9 20 -19.8 33.7 -22.9 9.8 -2.3 26.8 -2.1 38.5 0.4 25.8 5.7 46.7 15.7 86.4 41.4 42.4 27.5 60.8 36.5 82.2 40.2 25.8 4.5 45.2 -2.2 53.1 -18.2 3.8 -8 4.4 -19.4 1.3 -29.4 -7.4 -24.4 -26.9 -47.3 -57 -67.2 -19.2 -12.6 -42.8 -22.3 -64.5 -26.3 -13.8 -2.6 -39.2 -2.6 -53 0 -28 5.2 -56.1 18.8 -79 38.2 -4.4 3.7 -7.1 5.7 -6 4.4 17.9 -21.5 44.3 -39.3 71.5 -48.4 41.7 -13.8 84.6 -9.9 127.5 11.7 33.9 17 60.3 41.9 73.5 69.1 5.7 11.9 7.8 19.1 8.6 30.1 1.2 15.5 -3.8 28.8 -15.1 40 -11.4 11.3 -23.7 16.3 -42.5 17.2 -19.6 0.9 -39.9 -4 -61.9 -15 -13.5 -6.8 -22 -12 -45.6 -27.7 -22.4 -14.9 -35.6 -23.2 -36.2 -22.7 -0.2 0.2 -0.8 6.9 -1.4 14.8 -0.9 13.6 -3.1 31.5 -6.3 52.9 -0.8 5.2 -3 19.9 -5 32.5 -5.5 36.4 -6.9 50.4 -7 71 -0.1 14.6 0.3 21 1.7 27.5 2.3 11.3 8.3 23.5 14.2 28.9 10.3 9.5 28.4 14.9 46 13.7 28.4 -1.8 46.8 -15.4 52.9 -39.1 4.6 -17.9 5.1 -46.5 1.5 -83.9 -1.4 -14.6 -1 -16 1.7 -6.6 4.3 15.2 9.3 42.2 10.5 57.3 1.5 19.7 -0.5 38.5 -5.6 51.8 -0.5 1.2 1 1.7 8.7 2.8 18.5 2.6 36.6 8.6 38.2 12.6 2 5.4 -1 8.1 -14 12.4 -20 6.7 -46.9 10.2 -81.4 10.7 -22.5 0.3 -26.6 0.2 -34.5 -1.6z"/>
  <path d="M242.6 325.9 c-1.3 -18.2 0.5 -37.3 8.9 -91.7 3 -19.8 6 -40.6 6.6 -46.3 1.8 -15.8 2.9 -15.2 2.3 1.1 -0.6 17.7 -2.6 37.2 -6.5 63.5 -7.1 47.7 -8 54.8 -9.2 69 l-1.3 15 -0.8 -10.6z"/>
 </g>
</svg>