<?xml version="1.0" encoding="utf-8"?>
<!DOCTYPE svg PUBLIC "-//W3C//DTD SVG 20010904//EN" "http://www.w3.org/TR/2001/REC-SVG-20010904/DTD/svg10.dtd">
<svg version="1.0" xmlns="http://www.w3.org/2000/svg" width="828px" height="287px" viewBox="0 0 828 287" preserveAspectRatio="xMidYMid meet">
 <g fill="#2a292d">
  <path d="M118.5 244 c-15.8 -3 -25.2 -9.3 -30.5 -20.5 -2.5 -5.3 -5 -16.5 -5 -22.4 0 -2.6 2.5 -2.7 4.8 -0.4 1.6 1.6 1.7 1.5 2 -0.5 0.2 -1.2 1 -2.2 1.7 -2.2 1.4 0 1.8 1.4 3.1 11.5 1.8 14.4 11.9 23.1 28.2 24.2 7.1 0.5 8.2 0.8 8.2 2.4 0 1.7 -0.9 1.9 -6.7 2 -3.8 0.1 -6 0.3 -5 0.6 0.9 0.2 1.7 0.9 1.7 1.4 0 0.5 1.6 0.9 3.5 0.9 2.8 0 3.5 0.4 3.5 2 0 2.2 -2 2.4 -9.5 1z"/>
  <path d="M137 243.2 c0 -1.5 0.9 -2.1 4.3 -2.6 10.3 -1.5 11.7 -1.9 11.7 -2.8 0 -0.7 1.8 -0.9 4.9 -0.5 6.3 0.7 17.8 -0.9 19.7 -2.8 1.4 -1.3 1.2 -1.5 -1.5 -1.5 -2.4 0 -3.1 -0.4 -3.1 -1.9 0 -2.1 -3.4 -3.1 -10.6 -3.1 -4.2 0 -4.4 -0.1 -4.4 -3 0 -1.6 -0.4 -3 -1 -3 -0.5 0 -1 1.2 -1 2.8 0 5 -1.1 7.2 -3.5 7.2 -1.6 0 -2.5 0.7 -2.9 2.5 -0.5 2 -1.3 2.5 -3.9 2.5 -1.7 0 -5.6 0.3 -8.4 0.6 -4.9 0.6 -5.3 0.5 -5.3 -1.4 0 -1.6 0.8 -2.3 3.8 -2.8 10.2 -1.9 18.1 -7.8 21.9 -16.3 3.8 -8.4 5.5 -24.5 4.3 -38.9 -2.4 -28.2 -2.3 -28.4 2.6 -7.2 2.2 9.7 2.6 14.1 2.7 27.5 0.1 12.7 -0.2 16.9 -1.5 20.2 l-1.7 4.2 4.7 0.6 c5.9 0.9 14.6 3.2 19.5 5.3 2.7 1.1 3.7 2.2 3.7 3.8 0 2.1 -1.8 3.3 -9.5 6.2 -4 1.5 -25.9 4.9 -36.7 5.7 -8.3 0.6 -8.8 0.6 -8.8 -1.3z"/>
  <path d="M410.9 206.7 c-9.4 -6.3 -8.8 -19.9 1.2 -24.9 6.8 -3.5 15.8 -1.6 19.9 4.2 7.1 10 0.1 23 -12.5 23 -3.7 0 -6.2 -0.6 -8.6 -2.3z m14.8 -3.9 c3.1 -2.5 4.5 -7.6 3.3 -11.4 -1.5 -4.4 -4.4 -6.4 -9.5 -6.4 -5.1 0 -8 2 -9.5 6.5 -1.7 5.2 0.6 10.5 5.5 12.6 2.6 1.1 8.2 0.4 10.2 -1.3z"/>
  <path d="M448 207 c0 -1.5 0.7 -2 2.5 -2 1.8 0 2.5 0.5 2.5 2 0 1.5 -0.7 2 -2.5 2 -1.8 0 -2.5 -0.5 -2.5 -2z"/>
  <path d="M464 205 c-2.3 -3.7 -2.8 -4 -6.7 -4 -3.2 0 -4.3 0.4 -4.3 1.5 0 0.9 -0.9 1.5 -2.5 1.5 -2.3 0 -2.5 -0.3 -2.5 -4.9 0 -3.5 0.4 -5.1 1.6 -5.5 2.5 -1 3.4 -0.7 3.4 0.9 0 1.1 1.3 1.5 5.4 1.5 4.5 0 5.8 -0.4 7 -2.2 2.1 -3 2 -4.4 -0.4 -6.8 -1.5 -1.5 -3.3 -2 -7 -2 -4.3 0 -5 0.3 -5 2 0 1.5 -0.7 2 -2.5 2 -2.3 0 -2.5 -0.4 -2.5 -4.5 l0 -4.5 6.3 0 c3.4 0 7.9 0.5 9.9 1 7.8 2.2 10.3 10.6 4.8 16.1 l-3 3 2.4 3.2 c3.9 5.4 4 5.7 0.9 5.7 -2.2 0 -3.4 -0.9 -5.3 -4z"/>
  <path d="M489.3 206.9 c-4.2 -2.7 -6.7 -8.9 -5.8 -14.7 1.5 -10.3 14.9 -15.7 24.2 -9.7 2.4 1.6 2.4 1.7 0.7 3.6 -1.5 1.7 -1.9 1.8 -3.4 0.4 -1 -0.9 -3.6 -1.5 -6.2 -1.5 -3.6 0 -5.1 0.6 -7.2 2.6 -4.1 4.1 -3.9 10.6 0.5 14.7 3.1 2.8 6.1 3.3 10.3 1.7 2.3 -0.8 2.6 -1.5 2.6 -5.5 0 -4.1 0.2 -4.5 2.5 -4.5 2.4 0 2.5 0.2 2.5 7.3 l0 7.3 -8.7 0.2 c-7.3 0.1 -9.3 -0.2 -12 -1.9z"/>
  <path d="M524 199 c0 -11.4 1.2 -15 6 -17.5 6.2 -3.2 14.6 -1.1 17.5 4.5 1 2 1.5 5.9 1.5 13 l0 10 -2.5 0 c-2.2 0 -2.5 -0.4 -2.5 -3.5 l0 -3.5 -7.5 0 -7.5 0 0 3.5 c0 3.1 -0.3 3.5 -2.5 3.5 l-2.5 0 0 -10z m20 -5.8 c0 -5.8 -2.2 -8.2 -7.5 -8.2 -5.3 0 -7.5 2.4 -7.5 8.2 l0 3.8 7.5 0 7.5 0 0 -3.8z"/>
  <path d="M564 207 c0 -1.5 0.7 -2 2.5 -2 1.8 0 2.5 0.5 2.5 2 0 1.5 -0.7 2 -2.5 2 -1.8 0 -2.5 -0.5 -2.5 -2z"/>
  <path d="M584 207 c0 -1.5 0.7 -2 2.5 -2 1.8 0 2.5 0.5 2.5 2 0 1.5 -0.7 2 -2.5 2 -1.8 0 -2.5 -0.5 -2.5 -2z"/>
  <path d="M601 207.1 c0 -1.4 0.8 -2.1 2.8 -2.3 l2.7 -0.3 0.3 -9.7 0.3 -9.7 -2.8 -0.3 c-2 -0.2 -2.8 -0.9 -2.8 -2.3 0 -1.8 0.8 -2 7.8 -2.3 7.7 -0.3 7.7 -0.3 7.7 2.3 0 2 -0.5 2.5 -2.5 2.5 l-2.5 0 0 10 0 10 2.5 0 c1.8 0 2.5 0.5 2.5 2 0 1.8 -0.7 2 -8 2 -7.2 0 -8 -0.2 -8 -1.9z"/>
  <path d="M633.9 206.7 c-9.5 -6.3 -8.6 -20.3 1.7 -25.2 4.5 -2.1 11.7 -1.7 15.7 1 2.6 1.7 2.7 1.9 1.1 3.6 -1.5 1.6 -1.9 1.7 -3.7 0.4 -1.2 -0.8 -4 -1.5 -6.3 -1.5 -5.6 0 -9.4 3.7 -9.4 9.2 0 5 1.3 7.4 5 9.3 3.7 1.9 5.4 1.9 9.7 -0.1 3.1 -1.5 3.6 -1.6 5 -0.1 1.4 1.4 1.3 1.7 -1.8 3.6 -4.8 2.9 -12.5 2.8 -17 -0.2z"/>
  <path d="M102.2 201 c0 -1.9 0.2 -2.7 0.5 -1.7 0.2 0.9 0.2 2.5 0 3.5 -0.3 0.9 -0.5 0.1 -0.5 -1.8z"/>
  <path d="M83 191.8 c0.1 -1.3 0.7 -7.2 1.5 -13.3 1.8 -14.2 4.4 -26.7 9.4 -46 0.6 -2.2 1.1 -4.3 1.1 -4.6 0 -0.4 -1.9 -0.3 -4.2 0.2 -7.1 1.4 -8.8 1.1 -8.8 -1.1 0 -1.3 0.7 -2 2 -2 1.1 0 2 -0.4 2 -1 0 -0.5 0.9 -1 2 -1 1.1 0 2 -0.4 2 -1 0 -0.5 1.6 -1 3.5 -1 2.6 0 3.5 0.4 3.7 1.8 0.1 0.9 0.4 -1 0.7 -4.3 0.5 -5.3 0.9 -6 2.9 -6.3 2.8 -0.4 3 -2.8 -1.8 28.8 -1.1 7.4 -2.8 19.8 -3.6 27.5 -2.4 21.7 -2.1 20.5 -4.9 20.5 -1.8 0 -2.6 0.7 -3.1 2.5 -0.8 3.3 -4.4 3.5 -4.4 0.3z"/>
  <path d="M102.1 188 c0 -7 0.6 -12.7 3.9 -34.5 1.2 -7.7 2.8 -18.7 3.5 -24.4 0.8 -5.7 1.7 -10.6 2.1 -11 1 -0.9 -0.4 20 -2 30.9 -0.8 5.2 -2.4 16.5 -3.5 25 -2.6 18.7 -3.9 23.5 -4 14z"/>
  <path d="M564 187 c0 -6.8 0.1 -7 2.5 -7 1.6 0 2.5 0.6 2.5 1.5 0 1.9 0.9 1.9 3.4 0 2.4 -1.8 7.6 -1.9 11.1 -0.3 3.2 1.4 5.5 5.6 5.5 9.8 0 2.5 -0.4 3 -2.5 3 -1.9 0 -2.5 -0.5 -2.5 -2.3 0 -4.1 -2.7 -6.7 -7 -6.7 -4.4 0 -6.8 1.9 -7.7 6.1 -0.4 2.2 -1.1 2.9 -2.9 2.9 -2.3 0 -2.4 -0.3 -2.4 -7z"/>
  <path d="M359.8 159 c-5.6 -1.7 -8.9 -4.5 -11.6 -10 l-2.7 -5.5 -0.3 -33.7 -0.4 -33.8 5.6 0 5.6 0 0 3.5 c0 3.3 -0.2 3.5 -3.5 3.5 l-3.5 0 0 25 0 25 3.4 0 c3.3 0 3.4 0.1 4 5.2 0.4 2.8 1.3 6.3 2.1 7.8 3.1 6 12.7 6.3 16.9 0.7 2 -2.7 2.1 -4.3 2.6 -36.5 l0.5 -33.7 5.3 -0.3 5.2 -0.3 0 3.5 c0 3.4 -0.2 3.6 -3.5 3.6 l-3.5 0 0 23.6 c0 25.1 0.2 26.4 4.9 26.4 1.8 0 2.1 0.6 2.1 3.8 0 5.5 -2.6 13.6 -5.6 17.1 -4.1 4.9 -15.8 7.5 -23.6 5.1z"/>
  <path d="M413.7 158.6 c-7.5 -2.8 -12.8 -10.3 -13.1 -18.4 -0.1 -4.4 -0.1 -4.4 4.4 -5.8 2.5 -0.8 4.6 -1.4 4.8 -1.4 0.1 0 0.2 1 0.2 2.3 0 5 3.2 11.8 6.4 13.8 9.2 5.6 17.3 -2.7 13.1 -13.6 -1.2 -3.4 -4.1 -6.7 -11.3 -13.2 -5.3 -4.9 -10.7 -9.9 -12 -11.3 -8.8 -9 -7.9 -26.9 1.6 -32.4 7.4 -4.2 19 -3.9 24.7 0.6 3.2 2.5 6 8 7 13.5 0.7 4.2 0.7 4.2 -3.2 5.2 -5.7 1.6 -6 1.5 -6.6 -2.9 -1 -7.8 -5.6 -11.7 -12.3 -10.4 -6.6 1.2 -9.3 8.5 -5.6 15 0.9 1.8 6.6 7.6 12.7 13.1 14.1 12.8 16.8 17.4 16.3 28.4 -0.3 6.4 -0.7 8.1 -3.1 11.2 -1.5 2 -4.2 4.4 -5.9 5.3 -4.4 2.3 -13.4 2.8 -18.1 1z"/>
  <path d="M573.7 158.6 c-4.8 -1.8 -8.3 -4.9 -11 -10.1 -2.1 -3.8 -2.2 -5.3 -2.2 -31 0 -25.7 0.1 -27.2 2.2 -31 2.6 -4.9 5.8 -8 9.8 -9.5 3.9 -1.5 16.2 -1.6 20 -0.1 7.6 3 11.5 10.1 12.3 21.8 l0.5 8.3 -3.2 0 -3.1 0 0 13.5 0 13.5 3.2 -0.7 3.1 -0.6 -0.6 6.2 c-1 9 -4.8 15.5 -11 18.8 -4.2 2.1 -15.4 2.6 -20 0.9z m16.4 -10.2 c2.9 -3 3.9 -11.1 3.9 -31.8 0 -19.5 -0.9 -26.8 -3.6 -29.8 -4 -4.3 -15.4 -2.6 -17.4 2.7 -0.6 1.5 -1 13.7 -1 28.3 0 27.5 0.3 29.5 5 32 3.3 1.7 10.7 0.9 13.1 -1.4z m-22.1 -28.8 c0 -12.9 -0.1 -13.4 -2 -12.9 -1.9 0.5 -2 1.4 -2 13.4 0 12.2 0.1 12.9 2 12.9 1.9 0 2 -0.7 2 -13.4z"/>
  <path d="M629.7 158.8 c-5.2 -1.4 -10.1 -6.6 -12.2 -12.7 -1.4 -4.2 -1.6 -8.8 -1.3 -30.8 l0.3 -25.8 2.7 -4.7 c3.8 -6.4 9.4 -9 19.2 -9 12.4 0 19.4 5.5 21.6 17.1 1.3 6.9 1.3 42.2 0 49.2 -1.2 6.3 -5.2 12.5 -9.7 15.2 -3.8 2.2 -15.2 3.1 -20.6 1.5z m13.8 -8.8 c4.9 -1.9 5.5 -5.5 5.5 -32.5 0 -28.1 -0.5 -30.5 -6.3 -32.4 -4.8 -1.6 -10.3 -0.5 -12.7 2.6 -1 1.3 -2.2 4.4 -2.6 6.9 -0.5 3.9 -0.9 4.4 -3.3 4.5 l-2.6 0.2 2.7 0.4 2.7 0.4 0.3 21.8 c0.3 18.9 0.5 22 2.1 24.5 2.8 4.3 8.6 5.7 14.2 3.6z m-21.8 -36.7 c-0.2 -3.8 -0.3 -0.7 -0.3 6.7 0 7.4 0.1 10.5 0.3 6.8 0.2 -3.8 0.2 -9.8 0 -13.5z m35.3 6.7 c0 -10.6 -0.3 -13 -1.4 -13 -1 0 -1.6 -1.3 -1.9 -3.7 -0.2 -2.1 -0.4 3.7 -0.5 13 -0.2 16.1 -0.1 16.7 1.8 16.7 1.9 0 2 -0.7 2 -13z"/>
  <path d="M751.5 158.8 c-5.2 -1.9 -8.3 -4.7 -10.9 -10.1 -1.5 -2.9 -2.7 -7 -2.9 -9.1 -0.2 -3.9 -0.2 -3.9 4.6 -5.2 4.7 -1.2 4.7 -1.2 5.3 1.5 1.5 7.4 2.7 10.2 5.5 12.5 3.5 2.9 6.7 3.3 10.8 1.1 3.4 -1.7 4.1 -3.3 4.1 -8.7 0 -6.2 -3.3 -10.8 -15.2 -21.3 -5.9 -5.3 -11.7 -11.3 -12.7 -13.3 -5.6 -11 -2.4 -23.9 7.3 -28.9 4.8 -2.5 15.3 -2.1 20.5 0.7 4.7 2.7 9.1 10.2 9.1 15.6 0 3 -0.4 3.4 -3.7 4.3 -5.2 1.5 -5.1 1.5 -5.9 -2.6 -1.6 -9 -6.2 -12.6 -13.4 -10.4 -4.8 1.4 -6 3.4 -6 9.7 0 5.2 0.1 5.3 17.6 21.4 11.5 10.7 15.3 20 12.4 30.5 -2.8 10.1 -15.7 16.1 -26.5 12.3z"/>
  <path d="M279 150.2 c0 -18 1.2 -33.2 2.7 -33.2 0.8 0 1.3 -1.2 1.3 -3 0 -2 -0.5 -3 -1.5 -3 -1.3 0 -1.5 -2.3 -1.5 -14.4 0 -7.9 0.3 -15.8 0.6 -17.5 0.6 -3 0.8 -3.1 5.9 -3.1 l5.2 0 5.3 24.3 c7.5 34.7 9.2 41.9 9.6 41.5 0.3 -0.4 14.4 -64.2 14.4 -65.3 0 -0.3 2.4 -0.5 5.4 -0.5 l5.3 0 0.7 3.7 c0.3 2.1 0.6 10.2 0.6 18.1 0 13.5 -0.1 14.2 -2 14.2 -1.8 0 -2 -0.7 -2.2 -6.7 0 -3.8 -0.3 -5.4 -0.5 -3.7 -0.5 4.2 -4.3 5.6 -4.3 1.6 0 -1.4 -0.2 -2.3 -0.5 -2.1 -0.4 0.4 -13.5 56 -13.5 57.4 0 0.3 -1.5 0.5 -3.4 0.5 -3.1 0 -3.5 -0.4 -4.1 -3.2 -2.7 -12.8 -12.6 -54.2 -13 -54.6 -0.3 -0.3 -0.5 9.8 -0.5 22.5 0 12.6 -0.3 25.8 -0.6 29.2 l-0.7 6.1 -4.3 0 -4.4 0 0 -8.8z m12 -58.2 c0 -0.5 -0.9 -1 -2.1 -1 -1.9 0 -2.1 -0.5 -1.7 -4 0.2 -2.2 0 -4 -0.4 -4 -0.5 0 -0.8 1.6 -0.8 3.5 0 1.9 -0.4 3.5 -1 3.5 -0.5 0 -1 0.7 -1 1.5 0 1 1.1 1.5 3.5 1.5 1.9 0 3.5 -0.4 3.5 -1z"/>
  <path d="M324.7 148.3 c-0.4 -5.8 -0.7 -17.5 -0.7 -26 0 -14.6 0.1 -15.3 2 -15.3 1.7 0 2 0.7 2 5 0 4.6 0.2 5 2.3 5 2.3 0 2.4 0.3 3 12.2 0.4 6.6 0.7 16.1 0.7 21 l0 8.8 -4.3 0 -4.4 0 -0.6 -10.7z m5.3 -6.8 c0 -1.4 -0.4 -2.5 -1 -2.5 -0.5 0 -1 1.1 -1 2.5 0 1.4 0.5 2.5 1 2.5 0.6 0 1 -1.1 1 -2.5z"/>
  <path d="M452 117.5 l0 -41.5 5.5 0 c5.4 0 5.5 0 5.5 3 0 2.3 -0.4 3 -2 3 -1.1 0 -2 -0.4 -2 -1 0 -0.5 -0.4 -1 -1 -1 -0.7 0 -0.9 13.2 -0.9 37.8 0.1 20.7 0.4 36.5 0.6 35 0.3 -2.2 1 -2.8 2.9 -2.8 2.2 0 2.4 0.4 2.4 4.5 l0 4.5 -5.5 0 -5.5 0 0 -41.5z"/>
  <path d="M484 139.5 c0 -16.7 -0.2 -19.5 -1.5 -19.5 -0.8 0 -1.5 -0.7 -1.5 -1.5 0 -1 1.1 -1.5 3.5 -1.5 l3.5 0 0 16 c0 15.3 0.1 16 2 16 2 0 2 -0.7 2 -33 0 -32.3 0 -33 -2 -33 -1.9 0 -2 0.7 -2 15.9 0 13.6 -0.2 16 -1.6 16.5 -0.9 0.3 -6.9 0.6 -13.5 0.6 l-11.9 0 0 -3 c0 -1.6 0.5 -3 1 -3 0.6 0 1 0.5 1 1 0 0.6 4.2 1 10.5 1 l10.5 0 0.2 -17.7 0.3 -17.8 5.8 -0.3 5.7 -0.3 0 41.6 0 41.5 -6 0 -6 0 0 -19.5z"/>
  <path d="M508 117.4 l0 -41.7 13.3 0.5 c8.7 0.3 14.4 1 16.7 2 4.4 1.9 8.4 6.3 9.9 10.7 1.4 4.3 1.4 13.4 0 18.5 -1.1 3.8 -5 8.8 -7.7 9.7 -1 0.3 0 5.1 4.2 19.9 3.1 10.7 5.6 20 5.6 20.7 0 1.5 -9.5 1.9 -10.4 0.5 -0.3 -0.4 -2.8 -9.1 -5.6 -19.2 -2.8 -10.2 -5.7 -18.8 -6.3 -19.2 -0.9 -0.5 -0.9 -1 0.1 -2 1.6 -1.6 1.5 -2.8 -0.3 -2.8 -3 0 -1.4 -2.7 2.3 -3.8 5.8 -1.8 7.6 -4.3 8 -11.5 0.7 -10.7 -2 -14.1 -12.1 -15.3 l-5.7 -0.7 0 14.2 c0 11.9 0.2 14.1 1.5 14.1 0.8 0 1.5 0.7 1.5 1.5 0 1.1 -1.2 1.5 -4.5 1.5 l-4.5 0 0 -6.5 c0 -3.7 0.4 -6.5 1 -6.5 0.6 0 1 -2.7 1 -6 0 -3.3 -0.4 -6 -1 -6 -0.5 0 -1 -1.8 -1 -4 0 -2.2 -0.4 -4 -1 -4 -0.6 0 -1 12.8 -1 36.5 0 35.8 0 36.5 2 36.5 1.9 0 2 -0.7 2 -12.5 0 -7.7 -0.4 -12.5 -1 -12.5 -0.6 0 -1 -2.8 -1 -6.5 l0 -6.5 4.5 0 c3.3 0 4.5 0.4 4.5 1.5 0 0.8 -0.7 1.5 -1.5 1.5 -1.3 0 -1.5 2.8 -1.5 19.5 l0 19.5 -6 0 -6 0 0 -41.6z"/>
  <path d="M672 142.3 c0 -9.3 0.3 -22.5 0.7 -29.5 0.6 -12.4 0.7 -12.8 2.8 -12.8 1.8 0 2.4 -0.7 2.9 -3.5 0.4 -2.1 1.3 -3.5 2.1 -3.5 0.8 0 1.5 -0.4 1.5 -1 0 -0.5 -1.1 -1 -2.5 -1 -1.6 0 -2.5 0.6 -2.5 1.5 0 0.8 -0.9 1.5 -2 1.5 -1.9 0 -2 -0.7 -2 -9 l0 -9.1 5.8 0.3 5.7 0.3 7.2 32.5 c3.9 17.9 7.2 32.7 7.3 33 0.1 0.4 14.7 -63.9 15 -65.7 0 -0.2 2.4 -0.3 5.3 -0.3 l5.4 0 0.6 15.8 c0.4 8.6 0.7 20.3 0.7 26 0 9.5 -0.1 10.2 -2 10.2 -1.8 0 -2 -0.7 -2 -6.5 0 -6.2 -0.1 -6.5 -2.5 -6.5 -2.3 0 -2.4 -0.3 -2.7 -7.2 -0.2 -4 -0.6 -6.6 -1 -5.8 -0.3 0.8 -3.5 13.9 -7 29 l-6.3 27.5 -3.2 0.3 c-3.8 0.4 -2.6 3.8 -11 -32.8 l-5.8 -25.5 -0.9 29.3 -0.9 29.2 -4.3 0 -4.4 0 0 -16.7z"/>
  <path d="M717 142 c0 -16.3 0.1 -17 2 -17 1.8 0 2 0.7 2 5.5 0 5.2 0.1 5.5 2.5 5.5 2.3 0 2.5 0.4 2.5 4.8 0 2.6 0.3 7.7 0.7 11.5 l0.6 6.7 -5.2 0 -5.1 0 0 -17z"/>
  <path d="M169.1 129.9 c-9.1 -2.6 -24.6 -9.8 -30.5 -14.2 -2.4 -1.7 -23.5 -15.4 -28.3 -18.4 l-5.2 -3.2 -0.5 3.2 c-0.3 1.8 -0.8 5.3 -1.1 8 -0.5 3.6 -1 4.7 -2.4 4.7 -1.5 0 -1.9 -1.2 -2.5 -8.4 -0.6 -9.1 0.4 -13.5 3.3 -13.7 1 0 1.2 -0.2 0.4 -0.6 -0.7 -0.2 -1.3 -1.1 -1.3 -1.8 0 -0.7 -1.8 -1.5 -4.5 -1.9 -2.9 -0.5 -4.5 -1.2 -4.5 -2.2 0 -1 -1.4 -1.4 -5.4 -1.4 -6.3 0 -8.6 -0.7 -8.6 -2.5 0 -0.9 -1.4 -1.5 -3.7 -1.7 -3.1 -0.2 -3.9 -0.7 -4.1 -2.7 -0.4 -2.3 -0.2 -2.3 5 -1.6 7.6 1 22.1 6.1 30.5 10.6 11.1 6 24.8 14.3 26.3 15.9 0.3 0.3 2.8 1.9 5.5 3.5 2.8 1.6 5.5 3.4 6.2 4 3.4 3.4 23 11.8 32.3 13.8 8 1.8 10 2.5 10 4 0 1.4 -0.9 1.7 -5.6 1.7 -3.6 0 -6.1 -0.5 -7 -1.5 -2.2 -2.1 -4.4 -1.9 -4.4 0.5 0 1.7 0.7 2 4 2 2.2 0 4 0.4 4 0.9 0 1.3 8.2 0 9.7 -1.5 0.7 -0.7 1.3 -1.9 1.3 -2.6 0 -0.8 2.5 -2.1 5.9 -3.1 11.8 -3.5 16.6 -10 15.9 -21.5 -0.7 -12.5 -10.5 -27.3 -25.5 -38.8 -20.1 -15.5 -38.2 -22.4 -59 -22.4 -4.2 0 -7.3 -0.4 -7.3 -1 0 -0.5 -0.7 -1 -1.5 -1 -0.8 0 -1.5 0.4 -1.5 0.9 0 0.4 -3.5 1.4 -7.7 2.1 -4.3 0.6 -8.2 1.5 -8.8 2 -0.5 0.4 -2.3 1 -4 1.4 -2.8 0.7 -18.8 8.1 -21 9.8 -3.7 2.9 -12.3 9.3 -13.5 10.1 -0.8 0.5 1.2 -1.7 4.5 -4.9 3.3 -3.2 8.1 -7.2 10.5 -8.9 2.5 -1.6 4.7 -3.3 5 -3.6 0.6 -0.7 8.9 -5 14 -7.2 5.8 -2.5 13.1 -4.6 20 -5.7 8.7 -1.3 10 -1.3 10 0.5 0 1.2 0.8 1.4 4.3 0.9 2.3 -0.4 4.5 -1.1 4.8 -1.7 1.4 -2.1 20.8 1.9 32.4 6.8 9.1 3.8 21.4 10.6 25.1 14 0.7 0.5 3.3 2.8 6 5 2.6 2.2 5.4 4.8 6.3 5.8 0.9 1 3.1 3.5 4.9 5.5 1.7 2 3.5 4.5 3.8 5.5 0.3 0.9 0.9 1.7 1.3 1.7 0.7 0 2.2 3.1 6.7 13.5 2.5 5.9 2.3 18.7 -0.4 24.5 -3.8 8.1 -9.6 13.3 -19.4 17 -6.9 2.6 -21.5 2.6 -30.7 -0.1z m33.9 -7 c0 -1.4 -2.7 -1 -3.3 0.5 -0.4 1 0 1.2 1.4 0.9 1 -0.3 1.9 -0.9 1.9 -1.4z m-61 -13.4 c0 -0.9 -0.9 -1.5 -2.1 -1.5 -1.8 0 -1.9 0.2 -0.9 1.5 0.7 0.8 1.6 1.5 2.1 1.5 0.5 0 0.9 -0.7 0.9 -1.5z m-6 -2.5 c-2 -1.3 -4 -1.3 -4 0 0 0.6 1.2 1 2.8 1 2.1 0 2.4 -0.2 1.2 -1z m81.4 -0.7 c0.4 -0.9 0.2 -3.7 -0.3 -6.2 -0.6 -2.5 -1.3 -5.8 -1.6 -7.3 -0.3 -1.6 -1 -2.8 -1.5 -2.8 -1.4 0 -1.3 3.7 0.1 4.6 0.6 0.3 1 3.1 0.9 6.3 -0.1 3.1 -0.2 5.9 -0.1 6.4 0.2 1.3 1.9 0.7 2.5 -1z"/>
  <path d="M65.5 128.3 c-10 -2 -21.9 -7.7 -25.5 -12 -4.8 -5.7 -6.4 -9.8 -6.4 -16.3 0 -8 2.9 -14.4 9.8 -21.1 3 -2.9 12 -6.8 17.5 -7.5 4.7 -0.6 5.1 -0.5 5.1 1.5 0 1.2 -0.6 2.1 -1.5 2.1 -0.8 0 -1.9 0.9 -2.5 2 -0.6 1.1 -2.1 2 -3.5 2 -3.4 0 -5.5 1 -5.5 2.6 0 0.8 -0.9 1.4 -2 1.4 -1.1 0 -2 0.5 -2 1 0 0.6 -1.3 1 -3 1 -2.5 0 -3 0.4 -3 2.5 0 1.4 -0.4 2.5 -1 2.5 -0.5 0 -1 0.6 -1 1.4 0 0.8 -0.4 1.6 -0.9 1.8 -1 0.3 -1.4 3.8 -1.2 10.1 0.1 2.6 0.6 3.7 1.6 3.7 0.8 0 1.5 0.9 1.5 1.9 0 1.3 0.8 2.1 2.3 2.3 1.4 0.2 2.3 1.1 2.5 2.6 0.3 1.6 1 2.2 2.8 2.2 1.7 0 2.4 0.5 2.4 2 0 1.3 0.7 2 2 2 1.1 0 2 0.4 2 0.9 0 0.4 2.3 0.6 5 0.3 3.8 -0.3 5.4 -0.1 6.3 1.1 0.7 0.8 2.1 1.7 3.2 1.9 1.2 0.2 2.1 1.2 2.3 2.6 0.3 1.8 -0.1 2.2 -2.5 2.1 -1.5 -0.1 -3.7 -0.3 -4.8 -0.6z"/>
  <path d="M458 123 l0 -6 3.5 0 c2.4 0 3.5 0.5 3.5 1.5 0 0.8 -0.4 1.5 -1 1.5 -0.5 0 -1 2 -1 4.5 0 4.1 -0.2 4.5 -2.5 4.5 -2.4 0 -2.5 -0.3 -2.5 -6z"/>
 </g>
 <g fill="#2a292d">
  <path d="M121.2 244.3 c-2.7 -0.3 -4 -0.8 -3.6 -1.5 0.4 -0.6 0.3 -0.8 -0.3 -0.5 -1.5 0.9 -7.4 -0.3 -6.8 -1.4 0.3 -0.4 -0.4 -0.6 -1.6 -0.4 -1.3 0.3 -2.8 -0.3 -3.6 -1.3 -1 -1.1 -1.2 -1.2 -0.8 -0.2 0.4 0.8 -0.3 0.4 -1.5 -1 -1.2 -1.4 -1.9 -1.9 -1.5 -1.2 1 1.9 -0.3 1.4 -4.1 -1.5 -1.9 -1.4 -3.3 -3.2 -3 -3.9 0.3 -0.8 0 -1.1 -1 -0.7 -1.3 0.5 -2 -1.4 -1.5 -4.1 0.1 -0.5 -0.5 -0.6 -1.4 -0.2 -0.9 0.3 -1.3 0.2 -1 -0.3 0.3 -0.5 0 -1.3 -0.6 -1.6 -0.5 -0.4 -0.8 -1.4 -0.5 -2.2 0.3 -0.8 0.2 -1.2 -0.3 -0.9 -0.5 0.3 -1.1 -0.2 -1.4 -1.2 -0.2 -0.9 -0.8 -2.6 -1.2 -3.7 -0.5 -1.6 -0.5 -1.7 0.4 -0.5 0.6 0.8 1.1 1 1.1 0.4 0 -0.5 -0.7 -1.9 -1.5 -3 -1.7 -2.3 -1.9 -5.6 -0.4 -7.1 0.9 -0.9 0.7 -1.6 -0.6 -2.9 -1.4 -1.4 -1.6 -2.9 -1.2 -8.3 0.4 -3.6 0.8 -9.9 1.1 -13.9 0.4 -7.5 2.2 -16.4 3.7 -19.4 0.5 -1 0.6 -2.4 0.3 -3.3 -0.4 -0.8 0.2 -2.7 1.1 -4.1 0.9 -1.5 1.2 -2.3 0.6 -2 -1.4 0.9 -1.4 0.4 0.1 -3.1 0.6 -1.5 1 -3.2 0.9 -3.7 -0.1 -0.5 0.1 -1.6 0.5 -2.5 0.4 -0.9 0.9 -2.7 1 -4.1 0.2 -1.4 0.8 -2.6 1.3 -2.8 0.5 -0.2 0.7 -1 0.4 -1.8 -0.3 -0.8 -0.2 -2.2 0.2 -3.1 1.6 -3.7 1.4 -4.5 -0.8 -3.9 -4.5 1.2 -22.6 1.9 -23.9 0.9 -0.7 -0.6 -2.2 -0.9 -3.3 -0.7 -2.9 0.6 -6.7 -0.5 -6 -1.7 0.5 -0.7 1.2 -0.6 2.1 0.2 0.8 0.6 1.7 0.9 2.1 0.5 0.3 -0.3 0.1 -0.6 -0.6 -0.6 -0.7 0 -1 -0.4 -0.7 -0.9 0.7 -1.1 -1.3 -0.9 -3.2 0.3 -1.5 0.9 -7.2 -0.2 -7.2 -1.4 0 -0.5 -0.6 -0.7 -1.4 -0.4 -1.6 0.6 -4 -2.9 -2.8 -4.1 0.4 -0.5 0.1 -0.5 -0.6 -0.1 -0.7 0.4 -0.9 1.3 -0.5 1.9 0.4 0.7 -0.4 0.4 -1.7 -0.5 -1.4 -0.9 -2.4 -2.1 -2.3 -2.7 0.2 -0.6 -0.3 -1.1 -1 -1.1 -0.7 0 -2.3 -1.1 -3.4 -2.4 -1.6 -1.8 -1.8 -2.7 -1 -3.6 0.9 -1 0.9 -1.1 -0.3 -0.8 -2 0.6 -4.4 -4 -3 -5.7 0.8 -0.9 0.6 -1.8 -0.6 -3 -1 -1 -1.3 -1.9 -0.7 -2.3 1.3 -0.9 2.6 -4.5 1.3 -3.7 -0.6 0.3 -1 0 -1 -0.9 0 -2.7 1.2 -4.6 2.9 -4.6 1.4 0 1.4 -0.2 0.1 -1 -1.1 -0.7 -1.1 -1 -0.2 -1 0.7 0 1.1 -0.4 0.8 -0.9 -0.8 -1.2 8 -10.5 9.2 -9.7 0.6 0.3 1.3 -0.1 1.6 -1 0.5 -1.3 0.9 -1.4 2.1 -0.4 1.3 1.1 1.4 1 1 -0.2 -0.8 -2.1 2.4 -3.1 14.7 -4.4 3.9 -0.4 6.3 -0.3 7.3 0.6 0.8 0.6 1.9 0.9 2.5 0.5 1.4 -0.8 11 1.6 11 2.7 0 0.5 0.5 0.6 1 0.3 1.6 -1 7 1.8 7 3.5 0 1.3 0.1 1.3 1 0 0.9 -1.3 1.2 -1.3 2.1 0.3 0.6 0.9 1.4 1.5 1.9 1.2 1.4 -0.9 7 2.3 6.6 3.8 -0.1 0.6 -0.1 0.9 0.1 0.5 0.3 -0.5 1.1 -0.8 1.9 -0.8 0.9 0 1.3 0.4 0.9 0.9 -0.3 0.6 0.3 0.9 1.2 0.9 2.9 -0.3 10.2 5.1 9.6 7 -0.4 1.5 -0.3 1.5 0.6 0.2 0.9 -1.3 1.2 -1.2 2.6 0.5 0.9 1.1 1.4 1.3 1 0.5 -0.4 -1 -0.2 -0.9 0.8 0.2 0.8 1 1.6 1.5 1.9 1.3 0.3 -0.3 1.7 0.6 3.1 1.9 1.4 1.3 2.8 2.1 3.1 1.8 0.3 -0.3 0.6 0 0.6 0.6 0 0.7 0.3 1.1 0.8 1.1 1.9 -0.3 3.2 0.2 2.9 1.3 -0.1 0.7 0.5 1.2 1.3 1.3 2.3 0 6 2.8 6 4.5 0 1.1 0.3 1.1 0.8 0.3 0.5 -0.8 2.3 -0.2 6.2 2.2 3 1.9 5.9 3.5 6.3 3.5 0.5 0 1.7 1 2.8 2.3 1 1.2 1.8 1.6 1.9 1 0 -0.7 -0.5 -1.3 -1.2 -1.3 -0.6 0 -0.8 -0.3 -0.5 -0.6 0.4 -0.4 1.2 -0.2 1.9 0.4 0.8 0.6 4.4 1.8 8.1 2.7 3.6 1 6.5 2.1 6.2 2.4 -0.2 0.4 2.5 0.6 6 0.4 3.5 -0.3 7.3 0.1 8.4 0.7 1.7 0.8 1.9 0.8 1.5 -0.4 -0.3 -0.9 0.6 -1.7 2.7 -2.5 1.8 -0.6 3.4 -0.9 3.7 -0.6 0.3 0.2 1.3 -0.5 2.3 -1.6 0.9 -1.1 2 -2 2.4 -1.9 0.9 0.1 3 -2.3 3.3 -4 0.2 -0.8 0.8 -1.9 1.4 -2.5 0.6 -0.7 0.9 -0.5 0.6 0.5 -0.1 0.8 0.2 1.5 0.7 1.5 0.6 0 0.8 -0.4 0.6 -1 -0.4 -1.1 -0.4 -4.6 0 -8.5 0.1 -1.4 0 -3.2 -0.3 -4 -2.3 -6.7 -2.7 -8.4 -2.2 -9.1 0.3 -0.5 0 -0.9 -0.5 -0.9 -0.6 0 -1.1 -0.6 -1.1 -1.4 0 -0.8 -0.4 -1.6 -0.9 -1.8 -0.5 -0.2 -1.1 -1.2 -1.3 -2.2 -0.1 -1.1 -1.3 -3 -2.6 -4.3 -1.3 -1.3 -2 -2.8 -1.6 -3.5 0.4 -0.7 0.3 -0.8 -0.5 -0.4 -0.6 0.4 -1.4 0 -1.7 -0.9 -0.4 -0.9 -2.8 -3.7 -5.5 -6.3 -2.6 -2.5 -4.6 -4.9 -4.3 -5.3 0.2 -0.4 -0.1 -1.1 -0.7 -1.5 -0.8 -0.4 -0.9 -0.3 -0.5 0.4 1.3 2.1 -0.9 1.3 -4 -1.6 -1.7 -1.5 -4 -3.3 -5 -4 -1.1 -0.7 -1.2 -0.9 -0.4 -0.5 1.3 0.6 1.3 0.5 0.1 -1.1 -0.8 -0.9 -1.7 -1.3 -2 -0.8 -0.6 0.9 -7.3 -3.2 -7.1 -4.3 0.1 -0.3 0 -0.9 -0.3 -1.3 -0.2 -0.4 -0.2 -0.1 -0.1 0.6 0.4 1.6 -1.1 1.5 -2.8 -0.1 -0.7 -0.7 -1.7 -1.4 -2.3 -1.5 -2.7 -0.6 -4.5 -1.4 -4.5 -2.2 0 -0.5 -0.7 -0.6 -1.7 -0.3 -1 0.4 -1.4 0.2 -1 -0.4 0.5 -0.7 0 -0.9 -1.3 -0.6 -1.1 0.3 -2 0.1 -2 -0.5 0 -0.5 -0.6 -0.9 -1.2 -0.9 -2.1 0.2 -8.8 -1.5 -8.8 -2.2 0 -0.7 -1.8 -0.8 -19 -1.1 -7.4 -0.1 -14.2 0.1 -15.1 0.4 -0.9 0.4 -2 0.6 -2.5 0.5 -0.5 -0.2 -3.6 0.5 -6.9 1.5 -3.3 1 -6.4 1.9 -7 2 -0.5 0.1 -3.7 1.5 -7.1 3.2 -3.5 1.8 -6.8 2.8 -7.8 2.4 -1.5 -0.5 -1.4 -0.8 1.1 -2 1.5 -0.7 3.1 -1.3 3.6 -1.2 0.4 0.1 0.7 -0.4 0.7 -1 0 -0.9 0.4 -0.8 1 0.2 0.8 1.3 1 1.3 1 -0.1 0 -2 5.7 -4.9 7.9 -4.1 0.9 0.3 1.2 0.1 0.8 -0.3 -1 -1.2 7.6 -4.5 10.3 -4 1.1 0.2 1.8 0 1.5 -0.5 -0.6 -1 3.1 -2.4 4.4 -1.5 0.5 0.3 1.3 0.1 1.6 -0.5 0.4 -0.6 2.3 -1.1 4.3 -1.1 2 0 6.6 -0.2 10 -0.5 7.4 -0.7 13.6 0.2 12.6 1.8 -0.4 0.6 0.2 0.6 1.5 -0.2 2.5 -1.3 13.5 0.5 12.6 2 -0.3 0.5 0.4 0.7 1.5 0.5 1.2 -0.2 3 0.5 4.1 1.6 1.5 1.5 2.8 1.9 4.5 1.5 1.4 -0.4 2.4 -0.2 2.4 0.4 0 0.6 0.4 0.9 0.9 0.5 1 -0.6 9.1 3.2 10.2 4.8 0.3 0.5 0.9 0.8 1.3 0.8 1.2 -0.2 6.6 3 6.6 3.9 0 0.6 0.3 0.9 0.8 0.9 1.9 -0.3 2.3 0.2 1.3 1.5 -0.8 1 -0.9 1.6 -0.1 2.1 0.6 0.4 0.9 0.1 0.8 -0.6 -0.6 -2.3 1.8 -1.8 5.5 1.2 2.6 2.1 3.6 3.7 3.2 4.8 -0.5 1.2 -0.3 1.3 0.5 0.4 0.9 -0.8 1.8 -0.6 3.6 0.9 1.3 1.2 2.1 2.6 1.7 3.1 -0.3 0.6 -0.2 0.7 0.4 0.4 1.1 -0.7 9 8.1 8.5 9.5 -0.1 0.4 0.3 0.8 0.9 0.8 0.5 0 0 1 -1.3 2.3 -1.3 1.2 -1.7 1.6 -0.8 1 2 -1.6 3.7 -1.7 4.5 -0.3 0.3 0.6 -0.1 0.7 -1.2 0.4 -1.5 -0.4 -1.4 -0.3 0.2 0.7 2.5 1.5 3.5 3 2.9 4.1 -0.3 0.4 -0.1 0.8 0.5 0.8 0.9 0 2.5 3.3 2.6 5.5 0.1 0.6 0.6 1.9 1.2 3 1.7 3.2 1.6 18.1 -0.2 19.8 -0.8 0.8 -1.1 1.8 -0.8 2.1 0.4 0.4 -0.3 1.3 -1.5 2.2 -1.1 0.8 -1.9 2 -1.6 2.7 0.2 0.7 -0.5 2.3 -1.6 3.5 -2.2 2.3 -3.6 3 -2.4 1 0.4 -0.7 0.3 -0.8 -0.4 -0.4 -0.7 0.4 -1.2 1.4 -1.2 2.3 0 0.9 -0.3 1.3 -0.7 1 -0.3 -0.4 -1.1 0 -1.7 0.8 -0.6 0.7 -1.8 1.5 -2.6 1.7 -0.8 0.2 -2.1 0.9 -2.9 1.6 -0.8 0.8 -2.2 1.1 -3.2 0.9 -1 -0.3 -2 0 -2.2 0.7 -0.5 1.4 -21.5 1.5 -22.5 0.1 -0.4 -0.5 -2.5 -1.1 -4.6 -1.2 -4.4 -0.3 -6.1 -2 -4.3 -4.3 1.1 -1.3 1 -1.3 -0.5 -0.1 -1 0.7 -1.5 1.7 -1.2 2.2 1.1 1.8 -1.6 0.8 -3.7 -1.3 -1.2 -1.3 -1.9 -1.6 -1.5 -0.8 0.4 0.8 0 0.6 -0.8 -0.4 -1.2 -1.5 -1.6 -1.6 -1.6 -0.5 0 1.1 -0.2 1.2 -0.9 0.1 -0.4 -0.8 -1.1 -1.3 -1.5 -1.3 -0.3 0.1 -2.2 -0.6 -4.2 -1.4 -2.7 -1.1 -3.5 -1.9 -3 -3.1 0.6 -1.5 0.4 -1.5 -1 -0.3 -1.6 1.3 -1.6 1.2 -0.5 -0.9 1.4 -2.6 0.9 -2.8 -1.3 -0.7 -1.4 1.4 -1.7 1.4 -3.6 -0.5 -1.1 -1.1 -2 -1.7 -2 -1.3 0 0.4 -0.7 -0.3 -1.6 -1.5 -0.8 -1.2 -1.9 -2 -2.3 -1.8 -1 0.7 -7.1 -3.1 -7.1 -4.4 0 -0.6 0.5 -0.8 1 -0.5 0.6 0.3 1 0.1 1 -0.4 0 -1.4 -1.3 -1.4 -2.8 0.1 -0.7 0.7 -1.2 0.8 -1.2 0.2 0 -0.6 -1.4 -2.1 -3.1 -3.3 -1.8 -1.3 -2.9 -1.7 -2.5 -1 0.4 0.8 0 0.5 -0.9 -0.6 -0.9 -1.1 -1.9 -1.9 -2.3 -1.7 -1 0.4 -8.1 -4.1 -8.2 -5.1 0 -0.5 0.5 -0.5 1.2 -0.1 0.7 0.4 0.8 0.3 0.4 -0.5 -0.6 -0.9 -1.1 -0.9 -2.1 -0.1 -1 0.8 -1.5 0.8 -2.2 -0.2 -1 -1.6 -2.4 7.5 -2.3 15 0.1 2.9 -0.2 5.8 -0.6 6.4 -0.4 0.6 -0.8 3.4 -0.9 6.3 -0.1 2.8 -0.5 5.7 -1 6.5 -0.5 0.8 -0.8 3 -0.6 4.8 0.2 2.3 -0.1 3.2 -0.8 2.8 -0.8 -0.5 -0.9 0.4 -0.5 2.9 0.3 2.1 0.1 4.2 -0.6 5 -0.7 0.8 -0.9 1.9 -0.5 2.4 0.9 1.6 -0.5 8 -2.2 9.6 -0.8 0.8 -1 1.5 -0.4 1.5 0.6 0 1.1 1.1 1.1 2.5 0 1.4 -0.3 2.5 -0.7 2.5 -0.8 0 -1 3.7 -1.2 15.5 0 2.8 -0.4 4.5 -0.8 3.8 -0.5 -0.6 -0.8 5.1 -0.8 12.8 0 7.6 0.3 13.1 0.7 12.1 0.5 -1.2 0.7 -0.8 0.6 1.3 0 1.7 0.5 4.5 1 6.3 0.6 1.8 0.7 3 0.1 2.7 -0.5 -0.3 -0.6 0.1 -0.3 1 0.4 0.9 0.9 1.3 1.2 1 0.8 -0.7 4 4.8 3.4 5.9 -0.2 0.4 -0.9 0.2 -1.4 -0.5 -0.8 -1.1 -0.9 -1.1 -0.5 0.1 0.2 0.8 1.1 1.4 2.1 1.2 1.4 -0.3 2.2 1.5 1.7 4.1 -0.1 0.5 0.3 0.6 0.9 0.2 0.6 -0.3 0.8 -1.1 0.5 -1.6 -1.3 -2 1.5 -0.8 3 1.4 0.8 1.2 1.8 2.1 2 2 1.2 -0.7 3.5 -0.2 4.7 1 0.7 0.6 2.2 1.3 3.3 1.5 4.5 0.6 20.3 0.5 21.4 -0.2 0.7 -0.5 1.5 -0.5 1.8 -0.2 0.4 0.3 1.3 0 2.2 -0.7 0.9 -0.8 2.4 -1.7 3.4 -2 1.5 -0.6 1.7 -0.3 1.3 1.6 -0.4 1.6 -0.2 1.5 0.6 -0.5 0.6 -1.4 2.1 -3.2 3.4 -3.8 1.9 -1.1 8.9 -9.6 8.9 -11 0 -0.3 0.5 -1.2 1 -2 0.5 -0.8 1 -2.1 1 -3 0.1 -0.8 0.5 -4.1 0.9 -7.3 0.7 -5.2 0.9 -5.7 2.4 -4.5 1.5 1.1 1.5 1.1 0.5 -0.3 -1.7 -2.2 -1.1 -14.8 0.8 -16 1.3 -0.8 0.5 -1.3 -1.4 -1 -0.5 0.1 -0.7 -0.9 -0.6 -2.1 0.2 -1.3 0.1 -2.8 -0.3 -3.3 -0.3 -0.6 -0.9 -4.8 -1.3 -9.5 -0.5 -6.6 -0.3 -8.1 0.5 -6.7 0.7 1 0.9 2.5 0.6 3.2 -0.3 0.8 0 1.7 0.5 2.1 0.6 0.3 0.8 1.7 0.5 3 -0.4 1.4 -0.2 2.4 0.5 2.4 0.6 0 0.9 1 0.8 2.3 -0.2 1.2 0.1 2.8 0.5 3.6 0.5 0.8 1 3.7 1.2 6.5 0.1 2.8 0.5 5.9 0.9 6.8 0.6 1.5 0.3 11.3 -0.7 21 -0.2 2.1 -1 4.3 -1.7 5 -1.1 1.1 -1.2 1 -0.6 -0.1 0.6 -1 0.4 -1.2 -0.4 -0.6 -0.9 0.5 -1 1 -0.2 1.8 1.6 1.6 1.3 2.5 -0.6 2.3 -1.2 -0.1 -1.8 0.7 -1.9 2.1 -0.1 1.2 0.2 2 0.7 1.7 0.4 -0.2 0.5 -1.2 0.2 -2.1 -0.5 -1.3 -0.2 -1.3 2.2 0.3 1.6 1 4.1 1.7 5.6 1.6 3.4 -0.4 7.2 1.5 6.3 3.1 -0.5 0.9 -0.3 0.8 0.7 0 1.8 -1.8 3.9 -1.6 5.6 0.5 0.8 0.9 1.2 1.1 0.8 0.5 -0.9 -1.8 -0.1 -1.6 4.5 0.7 3.8 1.9 5.3 4 2.9 4 -0.5 0 -0.7 0.5 -0.4 1 0.3 0.6 -0.3 1 -1.4 1 -1.1 0 -2.4 0.7 -2.9 1.7 -0.6 0.9 -1.6 1.4 -2.5 1 -0.9 -0.3 -1.7 -0.1 -2 0.6 -0.2 0.6 -1.4 1.2 -2.8 1.3 -1.3 0.1 -3.2 0.5 -4.2 0.9 -0.9 0.4 -2.9 0.5 -4.2 0.3 -1.4 -0.3 -2.5 -0.1 -2.5 0.4 0 0.4 -1.2 0.8 -2.7 0.7 -1.6 -0.1 -4.7 0.3 -7 1 -2.3 0.6 -5.9 1.1 -8 1 -2.1 -0.1 -8.5 0.1 -14.3 0.4 -5.8 0.3 -12.4 0.3 -14.8 0z m71.7 -113.6 c-0.2 -0.1 -1.1 -0.8 -2 -1.5 -1.3 -0.9 -1.6 -0.9 -1.6 0.3 0 0.8 0.9 1.5 2 1.5 1.1 0 1.8 -0.1 1.6 -0.3z m-134.7 -56.2 c0 -0.5 -0.5 -1.1 -1 -1.3 -0.5 -0.1 -0.9 0.4 -0.9 1.3 0 0.9 0.4 1.4 0.9 1.3 0.5 -0.2 1 -0.8 1 -1.3z"/>
  <path d="M413.7 207.8 c-1.5 -0.5 -2.5 -1.4 -2.2 -1.9 0.4 -0.5 -0.1 -0.6 -0.9 -0.3 -2.5 1 -5.6 -5.3 -5.6 -11.4 0 -4.5 0.4 -5.7 3.3 -8.8 2.3 -2.5 4.5 -3.8 7.2 -4.2 5.4 -0.9 10.7 -0.4 9.9 1 -0.5 0.7 -0.2 0.8 0.5 0.3 1.6 -0.9 7.3 4.4 6.6 6.3 -0.2 0.7 0 1 0.5 0.7 1.6 -1 1.2 9.3 -0.6 12.6 -2.7 5.4 -11.9 8.2 -18.7 5.7z m11.9 -4.6 c5 -4 5.8 -10.4 1.9 -15 -1.3 -1.6 -2.3 -3.1 -2.1 -3.3 0.3 -0.2 -1.8 -0.5 -4.5 -0.7 -4.5 -0.3 -5.3 0 -8.4 3.1 -1.9 1.9 -3.7 3.2 -4 2.8 -0.3 -0.3 -0.4 0.1 -0.1 0.9 0.2 0.8 0.7 3.4 1 5.7 0.5 3.5 0.3 4.1 -0.8 3.7 -1 -0.4 -1.4 -1.6 -1.1 -3.9 0.3 -1.9 0.1 -3.6 -0.3 -3.9 -0.4 -0.2 -0.7 1.4 -0.7 3.5 0 3.6 1.8 6.4 3.5 5.4 0.3 -0.2 1.7 0.5 3 1.6 3.2 2.4 9.8 2.5 12.6 0.1z"/>
  <path d="M448.5 207.9 c-0.3 -0.3 -0.4 -6.5 -0.4 -13.8 l0.1 -13.1 7.2 0 c12.2 0 15.6 2.1 15.6 9.7 0 3.8 -2.2 8.4 -3.5 7.2 -0.3 -0.4 0.1 -1.4 1 -2.3 0.9 -0.9 1.3 -1.6 0.8 -1.6 -0.5 0 -1.6 0.9 -2.6 2 -0.9 1.1 -1.3 2 -0.9 2 0.9 0 1 6.5 0.1 7.4 -0.3 0.4 -1.2 -0.1 -1.9 -1 -1.2 -1.3 -1.1 -1.7 0.1 -2.6 1.1 -0.8 1.1 -0.9 -0.3 -0.4 -1 0.3 -2 0.1 -2.3 -0.4 -0.4 -0.6 -2.4 -1 -4.6 -1 l-3.9 0 0 4.3 c0 3.7 -0.3 4.3 -2.1 4.3 -1.1 0 -2.2 -0.3 -2.4 -0.7z m14.6 -9.6 c1.2 -1.5 1.2 -1.6 -0.1 -0.8 -0.8 0.5 -2.6 0.9 -4 0.8 l-2.5 -0.2 2.5 0.8 c1.4 0.5 2.6 0.9 2.6 1 0.1 0.1 0.8 -0.7 1.5 -1.6z m0.3 -2.5 c4.7 -2.1 4.7 -8.5 0.1 -10.6 -1.4 -0.7 -4.4 -1.2 -6.5 -1.2 l-4 0 0 6.5 0 6.5 4 0 c2.1 0 5 -0.5 6.4 -1.2z m-4.1 -13.5 c-1.3 -0.2 -3.3 -0.2 -4.5 0 -1.3 0.2 -0.3 0.4 2.2 0.4 2.5 0 3.5 -0.2 2.3 -0.4z"/>
  <path d="M466.4 207.9 c-0.3 -0.6 -0.1 -1.6 0.5 -2.3 0.6 -0.7 0.7 -1.7 0.3 -2.1 -0.4 -0.5 -0.1 -0.5 0.6 -0.1 0.7 0.5 1.1 1.4 0.8 2.2 -0.3 0.8 -0.2 1.3 0.2 1.1 0.4 -0.1 0.9 0.2 1.2 0.7 0.7 1.2 -2.8 1.7 -3.6 0.5z"/>
  <path d="M491.3 207.5 c-5.1 -2.2 -7.5 -6.9 -7 -13.8 0.3 -4.6 0.9 -6.3 3.2 -8.7 1.6 -1.7 3.5 -2.8 4.2 -2.6 0.7 0.3 1.3 0.1 1.3 -0.4 0 -1.6 10.8 -1.1 14.2 0.6 2.6 1.4 2.9 1.8 1.6 3 -1.2 1.3 -1.8 1.2 -4.7 -0.2 -2.3 -1.1 -4.4 -1.4 -6.9 -0.9 -2.1 0.3 -4.2 0.7 -4.9 0.7 -0.7 0.1 -1.1 0.4 -1 0.7 0.1 0.3 -0.6 1.8 -1.6 3.2 -1.9 2.9 -2.1 12.9 -0.2 12.6 0.6 -0.1 0.9 0.4 0.8 1.1 -0.2 0.6 0 1.1 0.5 1.1 1.9 -0.3 3.3 0.2 2.8 1 -0.4 0.5 0.2 0.8 1.1 0.6 5.1 -1 10.6 -1.3 9.2 -0.4 -0.9 0.5 -0.9 0.9 -0.2 0.9 0.6 0 1.5 -0.5 1.8 -1 0.4 -0.6 1.1 -0.7 1.7 -0.4 0.7 0.4 0.8 0.2 0.4 -0.5 -0.4 -0.6 -1.2 -0.9 -1.7 -0.6 -0.5 0.4 -0.9 -1.4 -0.9 -3.9 0 -3.9 0.3 -4.6 2 -4.6 1.8 0 2 0.7 2 6.8 0 5.5 -0.3 6.9 -1.5 6.9 -0.9 0 -1.4 -0.6 -1.1 -1.3 0.4 -0.9 -0.3 -0.9 -2.9 0.2 -4.3 1.8 -8.1 1.7 -12.2 -0.1z m-3.7 -8.7 c0.4 -0.6 0.3 -0.8 -0.3 -0.5 -1.3 0.8 -1.1 -6.5 0.2 -7.6 0.6 -0.5 0.4 -0.7 -0.5 -0.5 -0.9 0.3 -1.5 1.8 -1.5 4.4 -0.2 5.2 0.6 6.7 2.1 4.2z"/>
  <path d="M525.7 208.2 c-1.7 -0.3 -1.8 -1.3 -1.5 -10.2 0.4 -11.4 2 -14.7 8.3 -16.8 5 -1.6 10.9 0.1 13.9 4 1.9 2.7 1.9 2.8 0.1 4.1 -1.4 1.1 -1.5 1.6 -0.5 2.2 0.9 0.5 1.1 0.4 0.6 -0.3 -0.4 -0.7 -0.1 -1.2 0.8 -1.2 1.3 0 1.6 1.5 1.6 9.3 0 9.1 -0.1 9.4 -2.2 9.2 -1.7 -0.1 -2.3 -0.9 -2.5 -2.9 -0.1 -1.4 0.2 -2.4 0.7 -2.1 0.5 0.3 1.2 0.1 1.5 -0.5 0.4 -0.6 0.3 -1 -0.2 -0.9 -0.4 0.1 -1.5 -0.1 -2.4 -0.5 -0.9 -0.4 -4.7 -0.6 -8.5 -0.4 l-6.9 0.3 -0.5 3.5 c-0.4 2.8 -0.9 3.5 -2.3 3.2z m15.1 -8.9 c-2.1 -0.2 -5.5 -0.2 -7.5 0 -2.1 0.2 -0.4 0.4 3.7 0.4 4.1 0 5.8 -0.2 3.8 -0.4z m3.4 -6.3 c-0.2 -2.8 -1.1 -5.3 -2.5 -6.7 -1.9 -2.1 -1.7 -2.8 0.6 -2.4 0.5 0.1 0.5 -0.4 0.2 -1 -0.5 -0.8 -1 -0.8 -1.8 0 -0.6 0.6 -2.6 1.1 -4.4 1.1 -4.1 0 -7 2.7 -7.9 7.4 -1.1 6.2 -0.4 6.7 8.3 6.4 l7.8 -0.3 -0.3 -4.5z"/>
  <path d="M564.4 207.5 c-0.3 -0.6 -0.3 -6.3 -0.2 -12.6 0.2 -8.8 0.6 -11.3 1.6 -11.1 0.8 0.1 1.1 -0.2 0.7 -0.8 -0.3 -0.6 -1.1 -0.8 -1.6 -0.5 -0.5 0.4 -0.9 0.1 -0.9 -0.4 0 -0.6 1.1 -1.1 2.4 -1.1 2 0 2.3 0.4 1.9 2.1 l-0.6 2.2 3 -2.2 c3.9 -2.9 10.8 -3.1 12.9 -0.5 0.9 1.1 1.2 1.3 0.8 0.5 -0.5 -1 -0.3 -1.2 0.5 -0.6 2.7 1.6 4.1 7.5 4.1 16.8 0 8.7 -0.1 9.4 -2 9.2 -1.1 -0.1 -2.2 -0.3 -2.4 -0.6 -0.3 -0.2 -0.6 -5.4 -0.7 -11.5 -0.1 -7 -0.6 -11.1 -1.3 -11.2 -0.6 -0.1 -2.8 -0.5 -4.8 -0.8 -3.1 -0.5 -4.1 -0.2 -6.2 2 -2.4 2.3 -2.6 3.1 -2.6 12.3 0 9.4 -0.1 9.9 -2.1 9.9 -1.2 0 -2.3 -0.5 -2.5 -1.1z m9.5 -24 c2.8 -0.9 2.3 -1.6 -0.6 -0.9 -1.2 0.4 -2.9 1.8 -3.8 3.3 -1.6 2.6 -1.6 2.6 0.2 0.5 1.1 -1.2 2.9 -2.5 4.2 -2.9z"/>
  <path d="M602 206.8 c0 -1.2 0.8 -1.8 2.5 -1.8 l2.5 0 0 -10.5 0 -10.5 -2.5 0 c-1.6 0 -2.5 -0.6 -2.5 -1.5 0 -1.2 1.5 -1.5 7.5 -1.5 5.8 0 7.5 0.3 7.5 1.4 0 0.9 -1.2 1.6 -2.7 1.8 l-2.8 0.3 0 10 0 10 2.8 0.3 c1.7 0.2 2.7 0.9 2.7 2 0 1.4 -1.1 1.7 -7.5 1.7 -6.5 0 -7.5 -0.2 -7.5 -1.7z m6.7 -13 c-0.2 -1.3 -0.4 -0.3 -0.4 2.2 0 2.5 0.2 3.5 0.4 2.3 0.2 -1.3 0.2 -3.3 0 -4.5z m3.1 -11.5 c-1 -0.2 -2.8 -0.2 -4 0 -1.3 0.2 -0.5 0.4 1.7 0.4 2.2 0.1 3.2 -0.1 2.3 -0.4z"/>
  <path d="M635.5 207 c-4.9 -2.4 -7.5 -6.5 -7.5 -11.8 0 -5.2 1.6 -9.6 3.2 -8.6 0.7 0.4 0.8 0.3 0.4 -0.4 -0.4 -0.7 0.6 -2 2.6 -3.2 3.9 -2.4 15.5 -2.6 15 -0.2 -0.1 0.8 0.2 1.1 0.8 0.7 1.7 -1.1 3.2 0.5 2 2 -1 1.2 -1.7 1.1 -4.5 -0.2 -7.3 -3.5 -16.1 2.1 -15.2 9.6 0.2 2 0.8 4.5 1.2 5.5 0.6 1.5 0.5 1.7 -0.5 1.1 -0.9 -0.6 -1.1 -0.4 -0.6 0.4 0.5 0.7 1 1 1.3 0.7 0.3 -0.3 1.8 0.1 3.4 0.9 3.6 1.9 8.9 1.9 11.6 0 1.8 -1.3 2.2 -1.3 3.4 0.1 1.1 1.3 1 1.8 -0.6 2.7 -5.3 3.2 -10.6 3.4 -16 0.7z m-3.5 -8.1 c0 -0.5 -0.5 -0.7 -1 -0.4 -0.7 0.4 -0.9 -0.3 -0.5 -2.2 0.5 -2.6 0.5 -2.6 -0.5 -0.5 -1 2.5 -0.6 4.2 1.1 4.2 0.5 0 0.9 -0.5 0.9 -1.1z m12.8 -16.6 c-1 -0.2 -2.6 -0.2 -3.5 0 -1 0.3 -0.2 0.5 1.7 0.5 1.9 0 2.7 -0.2 1.8 -0.5z"/>
  <path d="M102.1 192.3 c0 -5.1 0.3 -9.3 0.8 -9.3 0.5 0 0.9 -2.8 0.8 -6.2 -0.1 -3.5 0.5 -9.4 1.2 -13.3 0.7 -3.8 1.2 -8.1 1.2 -9.4 -0.1 -1.3 0.4 -3 1 -3.7 0.6 -0.7 0.8 -1.8 0.4 -2.3 -0.9 -1.5 0.5 -8.1 1.7 -8.1 0.6 0 0.8 1.9 0.4 4.8 -0.3 2.6 -0.6 5.8 -0.6 7.2 0 1.3 -0.5 4 -1.2 6 -0.7 1.9 -1.3 4.9 -1.4 6.5 -0.5 8.1 -1.6 18 -2.1 18.9 -0.4 0.5 -0.9 4.8 -1.3 9.5 l-0.7 8.6 -0.2 -9.2z"/>
  <path d="M286.9 157.4 c0 -1 -0.3 -1.3 -0.6 -0.6 -0.2 0.6 -1.9 1.2 -3.6 1.2 l-3.2 0 0.6 -28.2 c0.4 -15.6 0.7 -33.8 0.8 -40.5 l0.1 -12.3 5.3 0 5.3 0 1.8 8.9 c1 5 1.5 9.5 1 10.2 -0.4 0.7 -0.3 1 0.2 0.6 0.9 -0.5 10.4 40.4 10.4 44.6 0 2 1.9 2.3 2.4 0.5 0.3 -0.7 2.6 -11.3 5.2 -23.5 2.6 -12.2 5.1 -22 5.5 -21.7 0.4 0.2 1.1 -0.1 1.5 -0.7 0.4 -0.8 0.3 -0.9 -0.4 -0.5 -1.6 0.9 -1.5 -0.1 0.5 -10 l1.8 -8.4 5.2 0 5.3 0 0.1 12.8 c0.1 7 0.4 25.2 0.8 40.4 l0.6 27.6 -4.2 0.4 -4.3 0.3 -0.1 -22.5 c-0.2 -29.9 -0.4 -35.9 -1.2 -36.7 -0.4 -0.3 -0.7 -0.1 -0.7 0.6 0 0.7 -0.5 0.9 -1.2 0.5 -0.7 -0.4 -0.8 -0.3 -0.4 0.5 0.4 0.6 0.5 3 0.1 5.3 -0.5 3 -1 3.7 -1.7 2.7 -0.7 -1 -0.7 -0.8 -0.3 0.8 0.8 3 -4.5 26.4 -5.8 25.6 -0.6 -0.4 -0.7 -0.1 -0.2 0.6 0.4 0.7 -0.3 6 -1.6 11.7 l-2.3 10.4 -3 0 -3.1 0 -6.3 -27.8 c-3.5 -15.2 -6.7 -28.6 -7 -29.7 -1 -2.8 -1.8 12.2 -2.1 37 -0.1 11.5 -0.4 21.1 -0.6 21.4 -0.3 0.2 -0.5 -0.4 -0.6 -1.5z m-3.9 -1.5 c0 -0.5 0.4 -0.8 0.9 -0.4 0.5 0.3 1.3 0 1.7 -0.6 0.5 -0.8 0.3 -0.9 -0.6 -0.4 -1 0.6 -1.2 0.4 -0.7 -0.8 0.9 -2.4 0.2 -2.1 -1.7 0.8 -0.9 1.4 -1.2 2.5 -0.6 2.5 0.5 0 1 -0.5 1 -1.1z m3.7 -13.1 c-0.2 -1.3 -0.4 -0.5 -0.4 1.7 -0.1 2.2 0.1 3.2 0.4 2.3 0.2 -1 0.2 -2.8 0 -4z m-5 -13 c-0.2 -1.3 -0.4 -0.3 -0.4 2.2 0 2.5 0.2 3.5 0.4 2.3 0.2 -1.3 0.2 -3.3 0 -4.5z m50 0 c-0.2 -1.3 -0.4 -0.3 -0.4 2.2 0 2.5 0.2 3.5 0.4 2.3 0.2 -1.3 0.2 -3.3 0 -4.5z m0 -8 c-0.2 -1.3 -0.4 -0.5 -0.4 1.7 -0.1 2.2 0.1 3.2 0.4 2.3 0.2 -1 0.2 -2.8 0 -4z m-34.7 -10.3 c1.4 -1.9 1.4 -1.9 -0.2 -0.6 -1.4 1.1 -1.8 1.1 -1.8 0.1 0 -0.8 -0.2 -1.1 -0.5 -0.8 -0.3 0.3 -0.3 1.3 0.1 2.2 0.4 0.9 0.7 1.6 0.8 1.4 0.1 -0.2 0.8 -1.2 1.6 -2.3z"/>
  <path d="M357 157.5 c-4.2 -1.9 -7.1 -4.5 -6.4 -5.6 0.3 -0.5 0.1 -0.9 -0.5 -0.9 -0.6 0 -1.7 -2.3 -2.6 -5.2 -1.2 -4.2 -1.5 -11.3 -1.5 -37 l0 -31.8 5.2 0 c4.8 0 5 0.1 3.2 1.5 -1.5 1.2 -1.6 1.4 -0.2 0.9 1.6 -0.5 1.8 1.8 2.2 32.3 0.4 33.5 0.5 36.5 1.7 35.8 0.8 -0.5 4.1 3 3.5 3.6 -0.3 0.3 2.2 0.2 5.4 -0.1 3.3 -0.3 6.5 -1.1 7.1 -1.7 1.3 -1.3 4.2 -0.6 3.3 0.8 -0.3 0.5 -1 0.6 -1.6 0.3 -0.7 -0.4 -0.8 -0.2 -0.4 0.4 0.5 0.9 1.5 0.7 3.4 -0.5 3.8 -2.4 4 -2.6 1.3 -1.8 -1.6 0.5 -2.1 0.4 -1.7 -0.4 0.5 -0.7 0.1 -0.8 -1 -0.4 -1.4 0.5 -1.6 0.3 -1.1 -1.1 0.4 -1 0.7 -2.1 0.7 -2.4 0 -0.4 0.4 -0.1 0.9 0.7 0.6 0.9 0.8 0.2 0.8 -2 -0.1 -1.9 0 -17.5 0.1 -34.6 l0.2 -31.3 5 0 5 0 0 29.2 c0 38.1 -1.1 44.1 -9.3 50.2 -3.8 2.8 -17.4 3.4 -22.7 1.1z m8.7 -0.2 c-0.9 -0.2 -1.5 -0.9 -1.2 -1.4 0.3 -0.5 -0.1 -0.6 -1 -0.2 -1.3 0.5 -1.4 0.7 -0.3 1.4 0.7 0.5 2 0.8 2.8 0.8 1.1 -0.1 1 -0.3 -0.3 -0.6z m-8.4 -1.9 c1.1 -1.1 -0.3 -2.4 -1.8 -1.8 -0.8 0.4 -1.2 1 -0.9 1.5 0.6 1.1 1.8 1.2 2.7 0.3z m23.2 -0.3 c0.7 -1.2 -1.2 -2.4 -2.5 -1.6 -1.1 0.7 -0.4 2.5 1 2.5 0.5 0 1.1 -0.4 1.5 -0.9z m-32.4 -16.7 c-0.5 -1.6 -1 -2.1 -1 -1.2 -0.1 1.8 1 5.1 1.5 4.5 0.2 -0.1 -0.1 -1.6 -0.5 -3.3z"/>
  <path d="M411 156.8 c-4.8 -2.4 -9.4 -8.9 -8.6 -12.1 0.2 -0.9 0.1 -1.5 -0.4 -1.2 -0.6 0.4 -2 -4 -2 -6.5 0 -1.2 8.2 -3.2 9.2 -2.2 0.5 0.5 1 3.2 1.1 6 0.1 2.9 0.3 4.8 0.5 4.2 0.2 -0.5 1.7 0.6 3.4 2.5 2.5 3 3.7 3.5 7.2 3.5 2.3 0 5.1 -0.6 6.2 -1.4 1.4 -1.1 2.3 -1.2 3.4 -0.3 1.2 0.9 1.3 0.9 0.3 -0.3 -1.4 -1.6 -1.8 -3.4 -0.5 -2.6 0.4 0.2 0.5 -2.4 0.1 -5.8 -0.8 -7.8 -2.7 -10.6 -14.9 -21.1 -5 -4.3 -8.7 -8.2 -8.3 -8.8 0.3 -0.6 0.1 -0.7 -0.5 -0.3 -1.5 0.9 -5.4 -5.3 -4.8 -7.7 0.2 -0.9 0 -1.5 -0.4 -1.2 -1.5 0.9 -2.2 -8 -1 -12.3 2.2 -8.6 9.1 -13.2 19.3 -13.2 8.2 0 13.5 3.3 16.8 10.5 1 2.2 1.9 5.5 1.9 7.4 0 3 -0.2 3.3 -2.5 2.9 -1.3 -0.3 -2.2 -0.2 -2 0.2 0.3 0.4 -0.4 1 -1.5 1.3 -1.4 0.4 -2 0 -2 -1.1 -0.1 -1 -0.7 -3.5 -1.5 -5.7 -0.9 -2.5 -1.1 -4.3 -0.4 -5.1 0.6 -0.7 0.4 -1.5 -0.6 -2.4 -0.8 -0.7 -1.3 -1.6 -1 -2 0.3 -0.5 0 -1.2 -0.7 -1.6 -0.7 -0.4 -1 -0.4 -0.6 0.1 0.4 0.4 0.3 1.4 -0.3 2.2 -1.1 1.3 -1 1.4 1.1 1.7 0.6 0 1 0.4 1 0.9 0 0.4 0 1 0 1.3 0 0.3 -1 -0.2 -2.2 -1 -4.6 -3.2 -14.3 -0.9 -15.2 3.7 -1 4.6 -1.1 10.5 -0.2 10 0.5 -0.4 0.7 0.1 0.3 1 -0.3 0.9 0.1 2.1 1.1 2.9 1.6 1.2 1.6 1.1 0.2 -0.7 -1.8 -2.3 15.9 13.4 20.7 18.5 1.8 1.9 4.3 5.5 5.5 7.9 2.4 4.9 3.9 16.9 2 15.7 -0.6 -0.3 -1.4 -0.1 -1.8 0.5 -0.4 0.8 -0.3 0.9 0.4 0.5 0.8 -0.5 1.2 0 1.2 1.3 0 2.7 -5.7 9.1 -9.7 10.7 -5.1 2.2 -14.2 1.8 -19.3 -0.8z m21.6 -4 c1.9 -2.3 1.9 -2.3 -0.1 -0.7 -1.1 0.9 -2.7 1.4 -3.5 1.2 -1.3 -0.4 -1.3 -0.3 0 0.6 0.8 0.6 1.5 1.1 1.6 1.1 0 0 0.9 -1 2 -2.2z m-7 -28 c0.4 -0.7 0.3 -0.8 -0.5 -0.4 -0.8 0.5 -1.1 0.1 -0.8 -1.6 0.2 -1.2 0.2 -1.7 0 -1.1 -0.3 1 -0.9 1 -2.6 0.1 -2 -1 -2 -0.9 0.3 1.5 2.9 3.1 2.7 3 3.6 1.5z m-1.6 -7.8 c-0.6 -1.1 -1.8 -2 -2.8 -1.9 -1.4 0 -1.4 0.2 -0.2 0.6 0.8 0.3 1.9 1.2 2.3 1.9 1.3 2.2 1.9 1.6 0.7 -0.6z m-5.5 -2.9 c-0.3 -0.2 -1.1 0.1 -1.9 0.8 -1.1 0.9 -1.5 0.9 -1.8 0 -0.2 -0.7 -1.3 -1.3 -2.4 -1.5 -1.7 -0.2 -1.7 -0.1 0.4 1.6 1.9 1.6 2.7 1.7 4.2 0.8 1.1 -0.7 1.7 -1.4 1.5 -1.7z m-4.5 -3.9 c0.7 -0.8 0.7 -0.9 -0.1 -0.3 -1.5 1.3 -3.9 0.3 -3.3 -1.4 0.3 -0.7 0.1 -1.6 -0.5 -2 -0.7 -0.4 -0.9 0.1 -0.5 1.2 0.4 1.4 0.1 1.2 -1.5 -0.6 -1.2 -1.3 -2.1 -1.8 -2.1 -1.2 0 0.7 -0.5 0.9 -1.2 0.5 -0.9 -0.5 -0.8 -0.2 0.1 0.9 0.8 1 1.6 1.5 1.9 1.2 0.7 -0.7 3.3 1.6 2.7 2.4 -0.7 1.3 3.5 0.5 4.5 -0.7z m19.8 -24.2 c0.5 0 1.4 0.6 2.2 1.3 1.2 1 1.2 0.9 0.1 -0.5 -1.3 -1.8 -4.7 -2.1 -4.8 -0.3 0 0.5 -0.4 1.9 -0.7 3 -0.4 1.1 0 0.8 0.9 -0.7 0.8 -1.6 1.9 -2.8 2.3 -2.8z m-25.8 -5.3 c0 -0.6 -0.9 -0.1 -2 1.1 -1.1 1.2 -2 2.4 -2 2.8 0 0.4 0.9 -0.1 2 -1.1 1.1 -1 2 -2.3 2 -2.8z m12.8 -3.4 c-1 -0.2 -2.6 -0.2 -3.5 0 -1 0.3 -0.2 0.5 1.7 0.5 1.9 0 2.7 -0.2 1.8 -0.5z"/>
  <path d="M452 117.8 l0 -40.8 5.4 0 5.4 0 0.2 17.2 c0 9.4 0.3 17.5 0.6 18 0.6 0.9 17.4 1.1 19.8 0.2 1.4 -0.5 1.6 -3.1 1.6 -18 l0 -17.4 5 0 5 0 0 40.4 0 40.4 -5 0.4 -5 0.3 0 -19.2 0 -19.3 -11 0 -11 0 0 17.3 c0 12.5 -0.4 17.7 -1.2 18.6 -1 1.1 -1 1.3 0 0.7 0.6 -0.4 1.2 -0.3 1.2 0.2 0 0.6 -2.5 1.2 -5.5 1.4 l-5.5 0.3 0 -40.7z m1.7 -21.6 c-0.1 -10.3 -0.2 -1.6 -0.2 19.3 0 20.9 0.1 29.3 0.2 18.7 0.2 -10.6 0.2 -27.7 0 -38z"/>
  <path d="M509 117.8 l0 -40.8 12.3 0 c10.7 0 12.8 0.3 17.2 2.4 6 2.8 7.9 5.3 9.4 12.8 1.9 8.9 -0.3 18.2 -5.1 22.3 -1.7 1.4 -3.3 2.3 -3.7 2 -0.3 -0.4 0.2 -1.3 1.3 -2 1.8 -1.3 1.8 -1.4 -0.2 -1.2 -2.8 0.2 -2.3 2.7 4.3 25.8 3 10.5 5.5 19.2 5.5 19.3 0 0.1 -2.3 -0.1 -5.2 -0.4 l-5.1 -0.5 -5.2 -18.5 -5.1 -18.5 -5.2 -0.3 -5.2 -0.3 0 19.3 0 19.3 -5 0 -5 0 0 -40.7z m24 -7.3 c4.1 -2.1 5.4 -5 5.4 -12.6 0 -4.8 -0.5 -7.4 -1.8 -9.5 l-1.9 -2.9 2.1 1.9 c1.2 1.1 2.3 1.7 2.3 1.5 0.6 -1.8 0.5 -4.7 -0.2 -4.3 -0.4 0.2 -0.5 1.2 -0.2 2.2 0.6 1.5 0.5 1.5 -1.1 0.3 -1.9 -1.6 -3.2 -1.9 -12.3 -2.8 l-6.3 -0.5 0 14.1 0 14.1 5.5 0 c3.1 0 6.9 -0.7 8.5 -1.5z m-6.9 -28.4 c-1.2 -0.8 -5.1 -0.4 -5.1 0.5 0 0.2 1.5 0.4 3.3 0.4 2.2 0 2.8 -0.3 1.8 -0.9z"/>
  <path d="M571 156.8 c-4.8 -2.4 -9.4 -8.9 -8.6 -12.1 0.2 -0.9 0 -1.5 -0.5 -1.1 -0.8 0.4 -1.6 -36.2 -1 -46.1 0.3 -6.2 1.2 -9.6 2.3 -8.9 0.7 0.4 0.8 0.3 0.4 -0.4 -1.1 -1.9 2.1 -6.9 6.1 -9.4 3.3 -2 5.1 -2.3 12.8 -2.3 11.6 0 15.5 2.1 19.4 10.4 2.6 5.6 2.6 5.7 2.6 30.6 l0 25 -3 6 c-3.9 7.9 -8.7 10.5 -19 10.5 -5.4 0 -8.2 -0.5 -11.5 -2.2z m19.9 -0.2 c0.9 -1 0.8 -1.5 -0.3 -1.9 -1 -0.4 -1.3 -0.1 -1 0.8 0.3 0.7 -0.2 1.5 -1.3 1.8 -1.4 0.4 -1.5 0.5 -0.2 0.6 0.9 0 2.2 -0.5 2.8 -1.3z m-0.5 -7.5 c1.3 -1.1 1.6 -1.1 1.4 -0.1 -0.2 0.7 0.3 1.4 1 1.6 0.7 0.1 0.8 0 0.2 -0.3 -0.7 -0.3 -0.7 -1 0.2 -2.1 1.1 -1.3 1.1 -1.4 -0.1 -0.7 -1.1 0.7 -1.3 0.4 -0.5 -1.1 1.4 -3 1.5 -58.4 0.1 -58.1 -0.7 0.1 -1.2 -0.5 -1.2 -1.3 0 -0.8 0.6 -1.4 1.4 -1.2 1.2 0.3 1.2 0 0.1 -1.2 -1.5 -1.9 -2.1 -2 -1.8 -0.3 0.2 0.7 -0.5 1.1 -1.7 0.9 -9.5 -1.7 -14.7 -0.8 -15.9 2.5 -0.3 0.8 -1 1.2 -1.5 0.8 -0.6 -0.3 -1 10.7 -1 29.5 0.1 16.8 0.5 30.2 1 30.5 0.5 0.4 0.6 -0.2 0.2 -1.2 -0.4 -1.3 0 -1.2 1.8 0.7 1.3 1.3 2.3 2.7 2.2 3 -0.3 1.2 12.5 -0.6 14.1 -1.9z m5.3 -43.8 c-0.1 -5.9 -0.3 -1.4 -0.3 10.2 0 11.6 0.2 16.4 0.3 10.8 0.2 -5.6 0.2 -15.1 0 -21z m-31.6 -13.4 c-0.9 -2.3 -0.9 -2.2 -0.8 0.8 0.1 1.8 0.6 2.8 1 2.4 0.4 -0.4 0.3 -1.8 -0.2 -3.2z m5.5 -9.3 c0 -1.6 -0.4 -2.2 -1.4 -1.9 -1.1 0.5 -1.1 0.7 0 1.4 0.7 0.5 0.9 0.9 0.5 0.9 -0.5 0 -0.5 0.5 -0.2 1 0.9 1.5 1.1 1.2 1.1 -1.4z m27.6 -0.5 c1 0.5 1.8 0.7 1.8 0.5 0 -0.3 -0.9 -1 -1.9 -1.5 -1.4 -0.8 -2.2 -0.7 -3.2 0.7 -1.1 1.4 -1.1 1.5 0.1 0.5 0.9 -0.8 1.9 -0.9 3.2 -0.2z m-11.2 -4.7 c0 -0.2 -1.3 -0.4 -3 -0.4 -1.6 0 -3 0.4 -3 0.8 0 0.5 1.4 0.7 3 0.4 1.7 -0.2 3 -0.6 3 -0.8z"/>
  <path d="M629.5 158.3 c-3.8 -0.9 -8.7 -5.6 -10.9 -10.2 -2 -4.3 -2.1 -6.2 -2.1 -30.1 0 -22.3 0.2 -26.1 1.8 -30.2 3.1 -8.1 9.5 -11.8 20.5 -11.8 10 0 17.2 4.9 19.7 13.4 2.1 7.1 2.1 49.1 0 56.2 -1.6 5.4 -6.2 10.6 -10.8 12.3 -2.8 1.1 -14.4 1.3 -18.2 0.4z m15.3 -1 c-1 -0.2 -2.6 -0.2 -3.5 0 -1 0.3 -0.2 0.5 1.7 0.5 1.9 0 2.7 -0.2 1.8 -0.5z m-15.6 -1 c-0.6 -0.2 -0.9 -1 -0.6 -1.5 0.5 -0.7 0.2 -0.8 -0.6 -0.3 -1 0.6 -1.2 0.4 -0.6 -1.1 0.6 -1.5 0.5 -1.6 -0.5 -0.7 -1 1 -0.9 1.5 0.1 2.8 0.7 0.8 1.8 1.5 2.4 1.4 0.7 0 0.6 -0.2 -0.2 -0.6z m24.3 -3.2 c0.3 -0.5 0.1 -1.3 -0.5 -1.6 -0.6 -0.4 -0.9 -0.1 -0.8 0.7 0.2 0.7 -0.4 1.3 -1.3 1.2 -0.9 -0.1 -1.6 0.5 -1.6 1.2 0 1.4 3 0.3 4.2 -1.5z m-12.7 -2.5 c2.3 -0.2 4 -0.1 3.7 0.3 -0.2 0.4 0.3 0.8 1.1 0.8 0.9 0 1.1 -0.4 0.5 -1 -0.6 -0.6 -0.2 -2 1.2 -3.9 2.1 -2.8 2.2 -4.2 2.5 -25.6 0.4 -27 0 -30.5 -3.9 -34.4 -2.7 -2.7 -3.4 -2.9 -9.3 -2.6 -3.6 0.1 -6.4 0.5 -6.4 0.8 0.2 1 -2.5 5.9 -3.1 5.6 -0.3 -0.2 -0.3 12 0.1 27.2 0.7 32.2 0.8 32.8 1.7 31.4 0.4 -0.7 1.1 -0.6 2.3 0.2 1 0.7 1.5 1.5 1.2 1.8 -0.2 0.3 0.6 0.4 1.8 0.2 1.3 -0.2 4.2 -0.5 6.6 -0.8z m-22.6 -35.3 c0.2 -7.2 0 -12.9 -0.4 -12.6 -0.5 0.2 -0.7 8.2 -0.6 17.6 0.2 18.4 0.6 16.4 1 -5z m7.5 -4.6 c-0.1 -4.5 -0.3 -0.5 -0.3 8.8 0 9.4 0.2 13 0.3 8.2 0.2 -4.8 0.2 -12.5 0 -17z m33 -14.4 c-0.3 -1 -0.5 -0.2 -0.5 1.7 0 1.9 0.2 2.7 0.5 1.8 0.2 -1 0.2 -2.6 0 -3.5z m-2.7 -10.8 c0 -0.8 -0.4 -1.6 -0.9 -1.9 -0.5 -0.4 -0.7 0.4 -0.3 1.6 0.4 1.6 0.2 1.9 -0.8 1.3 -0.9 -0.5 -1.1 -0.4 -0.6 0.4 0.9 1.4 2.6 0.5 2.6 -1.4z m-27 -1.9 c0 -0.6 -0.5 -0.4 -1 0.4 -0.8 1.2 -1 1.2 -1 0.1 0 -1.1 -0.3 -1.1 -1.5 -0.1 -1.3 1 -1.3 1.5 -0.3 2.1 1.4 0.9 3.8 -0.7 3.8 -2.5z m-0.6 -2.7 c-0.2 -0.4 0.4 -1.2 1.3 -1.8 1 -0.6 1.3 -1.1 0.6 -1.1 -0.6 0 -1.5 0.5 -1.8 1 -0.4 0.6 -1 0.8 -1.4 0.6 -0.4 -0.3 -0.8 0.1 -0.8 0.8 0 0.7 0.6 1.3 1.3 1.3 0.7 0 1.1 -0.4 0.8 -0.8z"/>
  <path d="M697.2 158.1 c-1.3 -0.8 -6.5 -22.9 -5.8 -24.8 0.3 -0.8 0.2 -1.2 -0.3 -0.8 -1.2 0.7 -2.5 -7 -1.5 -8.6 0.5 -0.8 0.3 -0.9 -0.6 -0.4 -1 0.6 -1.2 0.1 -0.8 -1.8 0.3 -1.5 0.2 -2.4 -0.2 -2.2 -0.7 0.4 -1.3 -2.1 -4.1 -15.2 -0.6 -2.9 -1.5 -5.3 -2 -5.3 -0.5 0 -0.9 12.3 -0.9 29.5 l0 29.5 -4.4 0 -4.4 0 0.4 -26.2 c0.3 -14.5 0.7 -32.7 1 -40.5 l0.6 -14.3 4.8 0 c3.8 0 5 0.4 5.4 1.8 0.5 1.6 7.2 32 11.8 53.7 2.1 10.1 2.5 11.2 3.2 10.4 0.4 -0.3 10.5 -45.5 14.1 -62.7 0.6 -3.1 0.8 -3.2 6.1 -3.2 l5.4 0 0 15.3 c0 8.5 0.3 26.8 0.7 40.8 l0.6 25.5 -4 -0.4 -4.1 -0.4 -0.7 -29.5 c-0.4 -16.2 -1.1 -29.1 -1.4 -28.6 -0.4 0.4 -3.4 12.4 -6.6 26.5 -3.3 14.1 -6.2 25.5 -6.6 25.3 -0.3 -0.3 -0.4 0.7 -0.1 2 0.2 1.5 0 2.5 -0.7 2.5 -0.7 0 -1 0.4 -0.7 0.9 0.7 1.1 -2.8 2.1 -4.2 1.2z m-21.9 -3.7 c-0.7 -2 -1.9 -1.7 -1.9 0.5 0 1.1 0.6 1.7 1.3 1.4 0.6 -0.3 0.9 -1.1 0.6 -1.9z m48.3 1.1 c-0.8 -0.8 -1.7 -1.5 -2 -1.5 -0.3 0 -0.3 0.7 0 1.5 0.4 0.8 1.3 1.5 2.1 1.5 1.2 0 1.2 -0.2 -0.1 -1.5z m-48.9 -48.2 c-0.2 -2.7 -0.3 -0.5 -0.3 4.7 0 5.2 0.1 7.4 0.3 4.8 0.2 -2.7 0.2 -6.9 0 -9.5z m44 -1.5 c-0.2 -1.3 -0.4 -0.3 -0.4 2.2 0 2.5 0.2 3.5 0.4 2.3 0.2 -1.3 0.2 -3.3 0 -4.5z m5 -15 c-0.2 -1.8 -0.4 -0.4 -0.4 3.2 0 3.6 0.2 5 0.4 3.3 0.2 -1.8 0.2 -4.8 0 -6.5z"/>
  <path d="M750 157.9 c-5.8 -2.3 -10.6 -9.5 -11.6 -17.3 l-0.6 -4.4 3.8 -1.1 c5.1 -1.4 5.4 -1.4 5.4 0.7 0 3.9 2.4 9.7 5.1 12.4 2.5 2.6 3.5 2.9 8.3 2.7 3 -0.1 5.3 -0.6 5 -1 -0.2 -0.4 0.1 -1.1 0.6 -1.4 2 -1.2 3.2 -6 2.5 -10.3 -0.5 -3.3 -1.8 -5.5 -6 -10.1 -3 -3.2 -5.1 -6.1 -4.7 -6.5 0.4 -0.4 0 -0.6 -0.8 -0.4 -1 0.2 -1.4 -0.4 -1.2 -1.7 0.2 -1.6 0.1 -1.7 -0.7 -0.5 -0.9 1.2 -2.1 0.4 -7.2 -4.5 -7.4 -7.2 -9.9 -12.1 -9.9 -19.5 0 -8.2 4.9 -17.4 8.1 -15.4 0.7 0.4 0.9 0.3 0.6 -0.3 -1 -1.6 4.7 -3.3 10.7 -3.3 6.6 0.1 13 3 15.5 7.1 1.9 3.1 4.7 12.6 4 13.3 -0.2 0.2 -2 0.7 -3.9 1 -2.2 0.5 -3 0.4 -2.2 -0.2 1.1 -0.7 1.1 -1 -0.3 -1.5 -0.9 -0.4 -1.4 -0.3 -1.1 0.1 0.2 0.4 0.1 1.4 -0.5 2.2 -0.6 1.1 -0.9 0.8 -0.9 -1.2 0 -1.5 -0.5 -3.9 -1 -5.4 -1.2 -2.9 0.3 -5.9 2.4 -4.7 0.6 0.4 0.5 -0.1 -0.3 -1 -0.7 -0.9 -1.6 -1.7 -1.9 -1.7 -0.3 0 -0.2 0.3 0.1 0.7 0.4 0.3 0.2 1.2 -0.4 1.9 -0.9 1.1 -1.6 0.9 -3.9 -0.8 -2.7 -2 -3.6 -2 -12.7 -0.6 -0.7 0.1 -1.1 0.6 -1 1.2 0.1 0.5 -0.7 1 -1.8 1.1 -1.5 0 -2 -0.7 -2 -2.9 -0.1 -1.7 -0.7 -3.1 -1.5 -3.4 -0.9 -0.2 -1.1 0 -0.5 0.5 0.6 0.4 1 1.7 0.9 2.8 0 2.2 1.5 4.7 2.5 4.1 0.3 -0.2 0.6 2.4 0.5 5.9 0 3.5 0.3 6.3 0.6 6.2 1.1 -0.3 6.1 6.1 5.1 6.5 -0.5 0.1 0.3 1.2 1.7 2.2 l2.7 2 -2 -2.4 c-3.8 -4.4 0.4 -1.4 8.9 6.3 11.2 10.2 14 15.6 13.4 26 -0.3 6.2 -0.8 8 -3.2 11.1 -1.7 2.3 -3.4 3.5 -4.3 3.2 -0.8 -0.3 -1.2 -0.2 -0.9 0.3 1.7 2.6 -13.8 4.2 -19.4 2z m21.9 -6 c-0.5 -1 -1.4 -2.1 -1.9 -2.4 -0.6 -0.3 -1 -1.1 -1 -1.7 0 -0.6 0.7 -0.5 1.7 0.3 1.5 1.3 1.5 1.2 0.2 -0.8 -1.1 -1.9 -1.5 -2 -2.2 -0.7 -0.5 0.9 -0.4 2 0.2 2.8 0.6 0.7 0.7 1.7 0.3 2.1 -0.4 0.5 -0.1 0.4 0.7 0 1 -0.6 1.3 -0.4 0.9 0.7 -0.4 0.8 0 1.5 0.7 1.5 1 0 1.1 -0.5 0.4 -1.8z m1.5 -25.9 c-1 -1.6 -2 -2.8 -2.2 -2.6 -0.4 0.5 2.8 5.6 3.5 5.6 0.2 0 -0.4 -1.3 -1.3 -3z m-5.9 -3.1 c-0.3 -1.5 0 -1.9 1 -1.5 2.1 0.8 1.9 0.3 -1.2 -2.5 -1.6 -1.3 -2.2 -1.7 -1.5 -0.9 1.5 1.8 1.6 3.4 0 2.4 -0.7 -0.5 -0.8 -0.3 -0.2 0.7 0.5 0.8 0.9 1.7 1 2.2 0.3 1.5 0.4 1.7 0.8 1.7 0.3 0 0.3 -0.9 0.1 -2.1z m-5.5 -5.6 c1.2 1 1.2 0.9 0.1 -0.6 -1 -1.2 -1.7 -1.4 -2.6 -0.7 -0.6 0.5 -1.4 0.8 -1.7 0.5 -0.2 -0.3 -0.5 0.2 -0.5 1 0 1.3 0.2 1.3 1.7 0 1.3 -1.2 1.9 -1.2 3 -0.2z m-10.7 -1.5 c-0.4 -0.7 -0.8 -1.6 -0.8 -2 0 -0.5 -0.4 -0.8 -1 -0.9 -1.9 -0.2 -3.6 -2.2 -3 -3.8 0.5 -1.3 0.4 -1.4 -0.6 -0.4 -1 1 -0.6 2 2.1 4.8 3.5 3.6 4.7 4.4 3.3 2.3z m11.2 -37.8 c-1.1 -0.5 -3.1 -0.8 -4.5 -0.8 -2.3 0 -2.2 0.1 0.5 0.8 4.2 1.1 6.5 1.1 4 0z"/>
  <path d="M109 136.1 c0 -1.7 0.5 -3.3 1.1 -3.6 0.5 -0.4 0.8 -1.9 0.5 -3.3 -0.4 -1.5 -0.2 -4 0.3 -5.7 0.9 -2.8 0.9 -2.7 1 1.6 0.1 6.3 -1 13.9 -2 13.9 -0.5 0 -0.9 -1.3 -0.9 -2.9z"/>
  <path d="M67.6 54.2 c-0.5 -0.9 5.2 -4.7 6 -4 0.2 0.3 -0.9 1.4 -2.6 2.6 -1.6 1.2 -3.1 1.8 -3.4 1.4z"/>
 </g>
</svg>